<svg xmlns="http://www.w3.org/2000/svg" viewBox="0 0 24 24" fill="#ffffff">
  <path d="M12 2.2c3.2 0 3.58 0 4.85.07 1.17.06 1.97.25 2.43.41a4.9 4.9 0 011.76 1.14 4.9 4.9 0 011.14 1.76c.16.46.35 1.26.41 2.43.07 1.27.07 1.65.07 4.85s0 3.58-.07 4.85c-.06 1.17-.25 1.97-.41 2.43a4.9 4.9 0 01-1.14 1.76 4.9 4.9 0 01-1.76 1.14c-.46.16-1.26.35-2.43.41-1.27.07-1.65.07-4.85.07s-3.58 0-4.85-.07c-1.17-.06-1.97-.25-2.43-.41a4.9 4.9 0 01-1.76-1.14 4.9 4.9 0 01-1.14-1.76c-.16-.46-.35-1.26-.41-2.43C2.2 15.58 2.2 15.2 2.2 12s0-3.58.07-4.85c.06-1.17.25-1.97.41-2.43a4.9 4.9 0 011.14-1.76 4.9 4.9 0 011.76-1.14c.46-.16 1.26-.35 2.43-.41C8.42 2.2 8.8 2.2 12 2.2zm0 1.8c-3.15 0-3.51 0-4.75.07-1.02.05-1.58.22-1.95.36-.49.19-.84.42-1.22.8a3.1 3.1 0 00-.8 1.22c-.14.37-.31.93-.36 1.95C3 8.49 3 8.85 3 12s0 3.51.07 4.75c.05 1.02.22 1.58.36 1.95.19.49.42.84.8 1.22.38.38.73.61 1.22.8.37.14.93.31 1.95.36 1.24.07 1.6.07 4.75.07s3.51 0 4.75-.07c1.02-.05 1.58-.22 1.95-.36.49-.19.84-.42 1.22-.8.38-.38.61-.73.8-1.22.14-.37.31-.93.36-1.95.07-1.24.07-1.6.07-4.75s0-3.51-.07-4.75c-.05-1.02-.22-1.58-.36-1.95a3.1 3.1 0 00-.8-1.22 3.1 3.1 0 00-1.22-.8c-.37-.14-.93-.31-1.95-.36-1.24-.07-1.6-.07-4.75-.07zm0 3.6a5.2 5.2 0 110 10.4 5.2 5.2 0 010-10.4zm0 1.8a3.4 3.4 0 100 6.8 3.4 3.4 0 000-6.8zm5.4-2.1a1.2 1.2 0 110 2.4 1.2 1.2 0 010-2.4z"></path>
</svg>
