<?xml version="1.0" encoding="UTF-8"?>
<svg id="uuid-4870a2fd-caec-44ce-bac5-396a306e4450" data-name="Capa 2" xmlns="http://www.w3.org/2000/svg" viewBox="0 0 300.68 126">
  <g id="uuid-e6c19c0b-f42f-4c25-8cfc-41d1f8de89b2" data-name="Capa 5">
    <g>
      <g>
        <polygon points="269.93 86.5 92.58 86.5 92.58 88.35 269.93 88.35 269.93 87.3 269.93 86.5" fill="#910b32"/>
        <path d="M80.96,26.13c.6-.17,1.12-.52,1.66-.81.72-.39.74-.94.07-1.43-.44-.32-.87-.64-1.32-.95-.24-.16-.29-.35-.23-.63.26-1.19.5-2.39.74-3.59.07-.36.08-.72-.3-.94-.38-.22-.67-.04-.96.2-.61.52-1.23,1.03-1.94,1.63.09-.39.14-.63.2-.87.09-.33.12-.65-.18-.89-.3-.25-.62-.19-.96-.05-1.04.44-2.09.86-3.14,1.29-.17.07-.35.11-.53.14-.34.06-.53-.05-.51-.44.02-.49.01-.99,0-1.49-.02-.56-.35-.93-.9-1-.2-.03-.4-.02-.6-.02-3.55,0-7.09,0-10.64,0-.44,0-.6-.13-.59-.58.03-1.15.02-2.29,0-3.44,0-.68-.38-1.06-1.06-1.1-.11,0-.22,0-.33,0h-23.92c-.12,0-.25,0-.37,0-.68.06-1,.39-1.01,1.08,0,1.08,0,2.17,0,3.25q0,.77-.77.77c-3.59,0-7.18,0-10.77,0-.84,0-1.22.37-1.25,1.21-.01.33,0,.65,0,.98,0,.49-.06.52-.51.34-.83-.33-1.66-.68-2.5-1.01-.31-.12-.63-.21-.91.06-.28.26-.24.58-.16.91.05.23.18.45.08.76-.66-.55-1.27-1.07-1.88-1.58-.28-.23-.58-.37-.93-.14-.34.22-.36.54-.28.9.25,1.17.47,2.34.73,3.5.08.37,0,.61-.32.83-.46.31-.92.64-1.35.99-.47.38-.46.89.03,1.2.52.33,1.07.65,1.64.86.42.15.39.3.25.63-.46,1.07-.9,2.14-1.34,3.22-.21.53-.14.87.3,1.07.32.14.38.33.38.64,0,2.14,0,4.27,0,6.41,0,.31-.08.5-.37.66-1.3.72-1.35,2.41-.09,3.18.34.21.46.42.46.81,0,5.87,0,11.74,0,17.61,0,.36-.1.58-.44.77-1.27.74-1.25,2.5.04,3.18.32.17.4.37.4.69,0,5.89,0,11.77,0,17.66,0,.31-.08.5-.37.66-1.35.76-1.35,2.46,0,3.23.29.16.38.35.38.66,0,5.9,0,11.8,0,17.7,0,.33-.1.53-.4.7-1.31.75-1.3,2.46,0,3.21.3.17.4.37.4.7,0,.71-.02,1.42.06,2.13.31,2.56,2.53,4.57,5.1,4.59,1.04,0,2.07,0,3.11,0,.29,0,.49.06.63.35.33.68.88,1.06,1.67,1.04.77-.02,1.33-.37,1.65-1.07.11-.23.26-.32.5-.32.5,0,.99.01,1.49,0,.34-.01.47.12.46.46-.01.62-.01,1.24,0,1.86.01.57.34,1.06.84,1.14.76.13,1.54.14,2.31-.01.29-.06.53-.07.81.02,1.84.59,3.69,1.16,5.53,1.75.39.12.77.18,1.19.11.69-.11,1.38-.15,2.08-.22,1.18-.12,2.37-.25,3.55-.38.33-.04.59-.2.71-.52.12-.34.03-.64-.24-.88-.14-.13-.26-.27-.4-.39-.32-.27-.23-.41.13-.51.28-.08.56-.19.83-.3.59-.22.79-.49.8-1.11,0-.68,0-1.36,0-2.04,0-.51-.22-.85-.68-1.06-.42-.19-.83-.41-1.26-.59-.32-.13-.4-.21-.08-.47.36-.28.68-.63,1.01-.96.17-.17.28-.37.19-.63-.09-.27-.31-.37-.57-.4-2.03-.22-4.06-.43-6.09-.65-.42-.04-.83.01-1.23.14-1.92.61-3.84,1.21-5.76,1.81-.16.05-.32.1-.5.07-.66-.12-1.33-.08-1.99-.04-.77.06-1.16.48-1.18,1.27,0,.42-.01.84,0,1.25,0,.3-.13.42-.42.41-.51-.01-1.02,0-1.53,0-.25,0-.38-.1-.5-.32-.34-.67-.87-1.08-1.66-1.07-.77,0-1.33.38-1.66,1.06-.12.25-.28.33-.54.33-1.05,0-2.11.02-3.16,0-2.08-.05-3.79-1.51-4.2-3.55-.15-.75-.04-1.51-.08-2.27-.02-.34.09-.55.4-.75,1.36-.85,1.31-2.46-.08-3.24-.31-.18-.32-.41-.32-.7,0-2.6,0-5.2,0-7.81,0-3.27,0-6.54,0-9.8,0-.28,0-.53.33-.68.67-.3,1.01-.88,1.04-1.58.03-.74-.32-1.33-.97-1.67-.33-.18-.4-.41-.4-.75,0-5.84,0-11.68,0-17.52,0-.36.1-.58.43-.77,1.28-.73,1.27-2.47-.02-3.18-.35-.19-.42-.43-.42-.78,0-5.85,0-11.71,0-17.56,0-.38.09-.61.45-.81,1.14-.65,1.32-2.29.26-2.95-.69-.43-.75-.92-.7-1.57.01-.15.01-.31,0-.46-.03-.3.11-.48.37-.62,1.07-.57,2.12-1.15,3.18-1.73.57-.32.61-.3.6.34-.03,3.13-.05,6.25-.06,9.38-.04,18.32-.02,36.65-.02,54.97,0,.45.02.89.07,1.34.37,3.35,2.92,6.13,6.24,6.76,2.46.47,4.95.47,7.44.63,1.99.13,3.98.27,5.95.58,2.69.43,5.3,1.15,7.72,2.43.7.37,1.33.41,2.02.03,1.12-.61,2.3-1.07,3.52-1.45,3.39-1.05,6.9-1.27,10.4-1.48,1.93-.11,3.86-.2,5.78-.49,2.03-.3,3.78-1.19,5.2-2.66,1.74-1.81,2.55-4,2.54-6.53-.01-16.48,0-32.96,0-49.44,0-4.71,0-9.42,0-14.12,0-.57.03-.59.53-.33.82.44,1.6.96,2.46,1.31,1.05.42,1.45,1.1,1.27,2.2-.05.3-.09.49-.39.65-1.3.67-1.37,2.46-.11,3.18.43.24.49.51.49.92,0,5.81,0,11.62,0,17.42,0,.39-.08.64-.46.84-.64.33-.95.92-.93,1.65.02.71.37,1.25,1.01,1.55.32.15.38.35.38.65,0,5.9,0,11.8,0,17.7,0,.05,0,.09,0,.14.01.23-.08.37-.3.46-.71.31-1.07.88-1.08,1.65-.01.77.36,1.34,1.05,1.67.27.13.34.31.34.59,0,5.93,0,11.86,0,17.8,0,.3-.09.47-.37.61-.67.33-1.02.9-1.01,1.64,0,.75.35,1.31,1.04,1.62.28.13.35.3.35.57-.01.56,0,1.11,0,1.67-.02,2.06-1.59,3.9-3.64,4.21-1.31.2-2.63.05-3.94.08-.25,0-.34-.16-.44-.35-.35-.69-.91-1.05-1.68-1.03-.76.02-1.33.38-1.65,1.08-.1.21-.23.31-.46.31-.54,0-1.08,0-1.63,0-.28,0-.39-.12-.39-.39,0-.51,0-1.02,0-1.53-.01-.64-.34-1.08-.97-1.17-.72-.1-1.46-.12-2.17.06-.27.07-.51.06-.76-.02-1.82-.57-3.64-1.13-5.45-1.72-.49-.16-.97-.18-1.46-.13-1.14.12-2.28.24-3.41.35-.68.07-1.35.13-2.03.22-.35.04-.63.21-.73.56-.1.34,0,.64.26.88.16.15.31.31.47.45.2.18.19.29-.08.38-.34.11-.67.25-1.01.36-.55.18-.79.57-.8,1.12,0,.57.03,1.15,0,1.72-.05.76.29,1.23.98,1.5.46.18.91.38,1.18.55-.31.38-.62.79-.96,1.17-.21.24-.45.45-.32.81.13.36.46.39.76.42,1.81.19,3.63.36,5.44.57.71.08,1.37,0,2.05-.22,1.78-.59,3.57-1.13,5.36-1.69.15-.04.31-.1.45-.08.63.09,1.27.04,1.9.04.89,0,1.29-.41,1.3-1.31,0-.49.02-.99,0-1.49-.02-.39.11-.57.52-.54.45.03.9.02,1.35,0,.32-.01.5.08.65.39.32.65.86,1,1.6,1.01.75,0,1.33-.3,1.65-.98.15-.32.35-.42.69-.41.99.02,1.98,0,2.97,0,2.96-.01,5.24-2.28,5.25-5.24,0-.48.02-.96,0-1.44-.02-.37.09-.58.45-.76.62-.32.94-.86.95-1.58.01-.74-.32-1.3-.96-1.63-.35-.18-.44-.39-.44-.76,0-5.84,0-11.68,0-17.52,0-.38.1-.62.46-.8.64-.33.96-.89.94-1.63-.02-.72-.33-1.27-.97-1.57-.36-.17-.43-.41-.43-.76,0-5.82,0-11.65,0-17.47,0-.38.09-.61.46-.8.62-.32.93-.87.94-1.59,0-.72-.31-1.28-.93-1.59-.39-.2-.47-.45-.47-.84.01-4.82,0-9.63,0-14.45,0-1.05,0-2.11,0-3.16,0-.26.03-.48.31-.61.71-.31,1.07-.86,1.08-1.64.02-.8-.37-1.35-1.07-1.7-.22-.11-.33-.25-.33-.5,0-2.23,0-4.46,0-6.69,0-.15,0-.29.18-.39.73-.45.76-.58.43-1.37-.44-1.06-.88-2.12-1.31-3.18-.06-.15-.18-.31.11-.39M45.15,115.87c.07-.22-.19-.68.35-.69.59,0,.31.47.37.76.03.15,0,.3,0,.46,0,.26-.16.33-.39.33-.23,0-.33-.13-.33-.35,0-.15,0-.31,0-.51M34.27,112.87c1.61-.51,3.22-1,4.83-1.52.43-.14.83-.02,1.24.01,1.51.13,3.01.3,4.52.46.09,0,.2,0,.25.09.06.13-.06.19-.13.27-.17.19-.38.17-.6.13-1.02-.18-2.04-.35-3.06-.55-.34-.07-.63-.02-.94.13-2.19,1.09-4.39,2.17-6.58,3.25q-.56.28-.56-.36c0-.17,0-.34,0-.51,0-1.07,0-1.08,1.03-1.41M44.11,113.52c.34.02.57.26.54.67-.02.27-.02.5-.39.48-.5-.03-.28-.42-.37-.66.11-.16-.13-.51.22-.49M44.63,115.96c0,.17,0,.34,0,.51-.01.2-.15.25-.32.26-.18,0-.36-.02-.37-.25-.02-.34-.01-.68,0-1.02,0-.22.15-.28.34-.28.19,0,.34.06.36.27.01.17,0,.34,0,.51M43.93,117.96c0-.12,0-.25,0-.37,0-.13.05-.25.2-.27.15-.02.31-.06.44.07.19.19.07,1-.16,1.13-.34.18-.47.11-.48-.28,0-.09,0-.18,0-.28h0ZM42.63,118.52c-.02-.12,0-.25,0-.37h0c0-.17,0-.34,0-.51,0-.27.14-.35.38-.34.24,0,.34.11.33.34,0,.29,0,.59,0,.88,0,.33-.2.43-.47.43-.35.01-.22-.26-.24-.44M43,116.72c-.55,0-.31-.45-.36-.72-.03-.15,0-.31,0-.46,0-.25.09-.37.35-.37.25,0,.37.1.36.36,0,.15,0,.31,0,.5-.08.22.21.68-.35.69M42.63,113.79c0-.14,0-.28,0-.42.01-.16-.05-.39.19-.4.22-.01.47.07.49.32.04.38.02.77,0,1.16,0,.21-.18.22-.35.22-.17,0-.32-.03-.34-.23-.01-.22,0-.43,0-.65h-.01M41.39,117.67c-.02-.21,0-.37.27-.37.23,0,.4.06.4.33,0,.4,0,.8,0,1.21,0,.27-.2.33-.41.35-.26.02-.24-.19-.25-.35-.02-.21-.02-.43-.04-.65,0,0,.02,0,.03,0,0-.17.01-.34,0-.51M41.69,116.73c-.27,0-.35-.15-.35-.38,0-.26,0-.53,0-.79,0-.27.13-.39.4-.38.28,0,.32.19.32.41,0,.12,0,.25,0,.37,0,.12,0,.25,0,.37,0,.26-.09.41-.38.41M41.34,113.68c0-.2,0-.4,0-.6,0-.19.07-.33.29-.33.22,0,.41.06.42.32.01.43,0,.86,0,1.29,0,.21-.12.3-.32.3-.21,0-.37-.05-.38-.3,0-.23,0-.46,0-.69h0ZM40.84,116.4c0,.23-.12.33-.35.33-.21,0-.37-.06-.37-.31,0-.31,0-.62,0-.92,0-.23.13-.32.35-.33.25,0,.38.09.37.35,0,.15,0,.31,0,.46h0c0,.14,0,.28,0,.42M40.48,114.67c-.26,0-.37-.11-.37-.36,0-.34,0-.68,0-1.02,0-.32.25-.41.48-.48.17-.05.23.06.23.2,0,.23,0,.46,0,.7h0c0,.2,0,.4,0,.6,0,.25-.1.37-.36.37M40.13,117.54c0-.23.2-.24.38-.24.17,0,.31.05.32.25,0,.25,0,.49,0,.74h.01c0,.14.02.28,0,.41-.02.15.11.41-.14.41-.23,0-.53-.08-.56-.38-.04-.4-.02-.8,0-1.2M39.56,113.98c-.07.28.14.68-.39.69-.42,0-.35-.31-.35-.55,0-.39.27-.76.56-.7.33.07.09.39.18.57M39.34,118.48c-.34-.02-.57-.26-.52-.67.03-.24-.04-.51.34-.52.52,0,.35.39.4.67-.1.15.16.52-.22.51M38.82,115.57c0-.26.08-.41.37-.4.29,0,.37.16.36.41,0,.12,0,.25,0,.37h0c0,.17,0,.34,0,.51-.01.22-.17.27-.36.27s-.34-.06-.35-.28c0-.29,0-.58,0-.88M38.32,116.4c0,.23-.13.33-.35.33-.22,0-.36-.09-.36-.32,0-.15,0-.31,0-.46s0-.31,0-.46c0-.21.12-.3.33-.3.21,0,.37.06.38.3,0,.31,0,.62,0,.93M37.03,115.49c0,.15,0,.31,0,.46h0c0,.17,0,.34,0,.51,0,.22-.16.27-.35.27-.19,0-.34-.05-.35-.27,0-.32,0-.64,0-.97,0-.24.13-.32.35-.32s.36.07.36.31M35.75,116.32c.01.28-.09.37-.35.23-.29-.15-.58-.29-.87-.43-.2-.1-.21-.21,0-.31.25-.12.49-.25.74-.37.43-.2.46-.18.48.29,0,.09,0,.18,0,.28,0,.11,0,.22,0,.32M33.24,117.11c0-.57.03-.59.53-.34,2.01.99,4.03,1.96,6.03,2.98.71.37,1.39.5,2.18.3.76-.19,1.55-.29,2.32-.43q.53-.09.95.43c-1.27.13-2.46.26-3.66.39-.28.03-.56.04-.83.09-.99.2-1.92,0-2.86-.33-1.36-.47-2.74-.88-4.12-1.29-.4-.12-.6-.3-.56-.74.04-.35,0-.71,0-1.07M30.53,113.23c.45-.01.9-.01,1.34,0,.35,0,.43.24.43.54,0,.76,0,1.51,0,2.27s0,1.55,0,2.32c0,.35-.15.51-.5.51-.42,0-.83,0-1.25,0-.3,0-.46-.16-.46-.46,0-1.56,0-3.12,0-4.68,0-.3.14-.47.44-.48M25.11,114.81c.49-.01.95.44.95.94,0,.51-.42.95-.93.96-.5,0-.94-.42-.95-.94,0-.51.41-.95.93-.96M51.42,111.82c1.64-.18,3.29-.34,4.93-.52.25-.03.49-.02.73.06,1.71.54,3.42,1.08,5.13,1.61.74.23.74.24.74,1.02v.32q0,1.14-1.04.63c-2.04-1.01-4.08-2.01-6.11-3.02-.33-.16-.65-.23-1.02-.16-.97.2-1.94.36-2.92.53-.15.03-.31.05-.46.03-.19-.03-.39-.17-.39-.35,0-.25.26-.15.41-.16M61.73,116.07c-.12.07-.24.14-.37.19-.31.11-.68.53-.89.32-.26-.25-.07-.76-.08-1.16,0-.11.05-.18.23-.14.35.18.75.37,1.15.59.12.06.07.16-.03.21M59.8,115.95c0,.15,0,.31,0,.46,0,.21-.11.3-.32.3-.2,0-.32-.09-.33-.3,0-.31,0-.61,0-.92,0-.23.12-.33.35-.33.21,0,.3.12.3.32,0,.15,0,.31,0,.46M58.58,116.32c0,.26-.08.4-.37.4-.3,0-.36-.17-.35-.42,0-.12,0-.25,0-.37h0c0-.15,0-.31,0-.46,0-.25.16-.3.37-.3.22,0,.35.09.35.33,0,.28,0,.55,0,.83M56.56,117.95c.05-.27-.12-.65.37-.66.41,0,.36.29.36.55,0,.37-.26.72-.54.66-.34-.07-.11-.38-.19-.55M57.29,116.37c0,.26-.14.35-.38.34-.23,0-.34-.1-.34-.33,0-.26,0-.52,0-.78,0-.27.06-.45.38-.44.3,0,.35.19.35.43,0,.11,0,.22,0,.32h0c0,.15,0,.31,0,.46M56.95,114.59c-.53,0-.32-.41-.4-.67.1-.16-.13-.51.2-.5.33.01.59.24.55.65-.02.25.02.51-.35.51M55.34,118.23h0v-.6c0-.26.15-.34.39-.34.24,0,.33.13.33.35,0,.32,0,.65,0,.97,0,.09-.03.2-.09.25-.14.14-.32.29-.52.24-.18-.05-.09-.27-.1-.41-.01-.15,0-.31,0-.46M56.07,115.97h0c0,.15,0,.31,0,.46,0,.22-.14.29-.33.29-.21,0-.37-.05-.38-.3,0-.31,0-.61,0-.92,0-.26.15-.34.39-.33.24,0,.33.12.33.34,0,.15,0,.31,0,.46M56.06,114.32c0,.22-.16.27-.35.27-.19,0-.34-.06-.35-.28-.01-.23,0-.46,0-.69h-.01c0-.12-.01-.25,0-.37.02-.16-.1-.44.19-.43.21,0,.49.11.51.39.04.37.02.74.01,1.11M54.06,115.49c0-.23.12-.33.34-.33.21,0,.37.06.37.3,0,.31,0,.61,0,.92,0,.23-.12.32-.35.33-.25,0-.38-.09-.37-.35,0-.15,0-.31,0-.46h0c0-.14,0-.28,0-.42M54.06,117.59c0-.25.16-.3.37-.3.2,0,.33.08.33.3,0,.22,0,.43,0,.65h0c0,.2,0,.4,0,.6,0,.17.02.38-.25.34-.21-.03-.46-.03-.46-.34,0-.42,0-.83,0-1.25M54.77,113.62v.65c0,.24-.13.33-.35.33-.22,0-.36-.08-.36-.32,0-.39,0-.77,0-1.16,0-.32.21-.37.46-.39.31-.02.25.21.25.38,0,.17,0,.34,0,.51h0ZM52.77,115.97c-.03-.15,0-.31,0-.46,0-.22.09-.34.33-.34.24,0,.39.07.39.33v.51c-.08.22.21.71-.38.7-.55-.01-.28-.47-.34-.74M52.76,113.41c-.02-.33.18-.43.46-.45.32-.02.26.24.27.42,0,.12,0,.25,0,.37,0,.14,0,.28,0,.41,0,.24-.06.42-.35.42-.29,0-.38-.15-.37-.4,0-.26.01-.52,0-.78M52.78,117.54c0-.2.16-.24.33-.24.19,0,.35.04.37.26.01.18,0,.37,0,.56h.01c0,.14,0,.28,0,.42,0,.18.01.4-.26.4-.21,0-.42-.09-.44-.33-.03-.35-.02-.71,0-1.07M52.08,118.41c-.31.04-.54-.27-.54-.66,0-.25.02-.47.36-.46.5,0,.33.38.38.65-.08.15.13.43-.19.47M51.87,114.59c-.07,0-.16-.02-.22-.06-.23-.18-.12-1.01.15-1.14.36-.18.46-.12.47.28,0,.08,0,.15,0,.27-.05.24.16.67-.4.65M51.92,115.16c.34,0,.36.22.35.47,0,.09,0,.18,0,.28,0,.14,0,.28,0,.42.01.26-.08.4-.37.4-.3,0-.36-.18-.36-.42,0-.23,0-.46,0-.69,0-.26.05-.45.38-.45M50.97,115.94c0,.17,0,.34,0,.51-.01.22-.17.27-.36.27s-.35-.05-.35-.27c0-.32,0-.65,0-.97,0-.24.14-.31.36-.31s.36.08.36.32v.46h0M62.55,118.84c-1.85.57-3.69,1.16-5.53,1.74-.49.15-.98,0-1.47-.04-1.44-.14-2.89-.3-4.33-.46-.07,0-.16,0-.22-.11.16-.27.35-.44.73-.37.99.19,1.98.35,2.97.53.41.08.78.03,1.16-.16,2.2-1.1,4.41-2.18,6.61-3.27.46-.23.47-.22.47.3,0,.43-.01.87,0,1.3,0,.3-.12.45-.4.54M66.03,118.22c0,.34-.17.47-.49.46-.37,0-.74-.01-1.11,0-.43.02-.62-.16-.61-.6.02-.74,0-1.49,0-2.23s.01-1.46,0-2.18c-.01-.43.17-.59.58-.57.39.02.77.01,1.16,0,.33,0,.48.14.48.47,0,1.55,0,3.1,0,4.65M70.99,116.71c-.51-.02-.87-.42-.87-.95,0-.55.4-.95.93-.95.5,0,.93.47.92.98-.01.51-.47.94-.98.92M80.74,18.79c.1-.08.19-.26.34-.18.15.08.06.25.04.38-.19.97-.42,1.93-.58,2.91-.08.51-.36.65-.81.68-1.06.05-2.13.12-3.19.18-1.29.07-2.59.13-3.89.2v.02c-.15,0-.31,0-.46,0-.45.03-.67-.21-.61-.65.04-.29.3-.24.47-.26.8-.05,1.6-.1,2.41-.11.68-.01,1.36-.05,2.04-.1.23-.02.41-.11.6-.22,1.34-.79,2.45-1.88,3.65-2.85M65.2,24.72c-1.8-.3-3.6-.61-5.4-.92-.27-.05-.46-.13-.47-.46,0-.32.09-.51.45-.48.15.01.31,0,.46,0,0,0,0-.01,0-.01,1.17.09,2.34.18,3.51.27.23.02.46.02.69.02.25,0,.29-.18.31-.38.01-.2-.1-.27-.28-.29-.34-.03-.68-.09-1.02-.09-.39,0-.41-.24-.41-.52s.04-.49.39-.48c.51,0,1.06-.09,1.52.11.52.23.89.74,1.38,1.05.06.04.03.2.04.31.02.29.17.53.44.61.77.22,1.55.45,2.37.3.51-.09.96-.32,1.37-.65.1-.08.18-.28.33-.18.09.06.11.25.12.38.09,1.19-.27,2.25-.97,3.21-.66.92-1.37,1.28-2.57.85-2.08-.74-4.23-1.27-6.36-1.89-.16-.05-.34-.09-.47-.18-.18-.12-.35-.33-.28-.54.08-.22.32-.09.49-.06,1.42.24,2.84.47,4.25.72.24.04.42.06.47-.26.06-.33-.13-.39-.38-.44M67.11,22.64c0-.15.14-.19.26-.22.99-.23,1.98-.47,2.97-.7.09-.02.19-.05.26.04.08.1.05.21-.02.3-.48.6-1.06,1.03-1.96,1.06-.35-.07-.79-.15-1.22-.24-.13-.03-.29-.07-.28-.25M70.06,27.61c.17-.09.26.04.34.15.76.93,1.53,1.86,2.28,2.8.18.22.11.97-.09,1.16-.04.04-.11.06-.16.06-.08,0-.15-.02-.23-.03q-1.38-.28-1.78-1.67c-.2-.7-.39-1.4-.57-2.01-.03-.26.05-.39.2-.46M72.7,29.5c-.53-.83-1.21-1.57-1.86-2.31-.24-.28-.08-.43.05-.64.14-.25.3-.14.46-.04,1.93,1.14,3.86,2.28,5.8,3.42.22.13.31.25.05.43-.26.19-.51.41-.76.61-.11.09-.23.16-.49.14-1.07-.41-2.44-.34-3.25-1.61M76.95,29.01c-1.75-1.04-3.51-2.08-5.26-3.11-.2-.12-.39-.22-.22-.5.05-.08.1-.16.25-.13.07.04.16.09.25.14,1.75,1.04,3.51,2.08,5.26,3.12.15.09.45.13.31.41-.14.27-.36.2-.59.07M73.98,19.91c.35-.01.67-.08.99-.21.9-.38,1.8-.75,2.7-1.11.14-.06.3-.18.43-.08.15.11.03.29,0,.43-.02.12-.08.24-.08.36-.01.92-.61,1.39-1.33,1.77-.13.07-.25.11-.4.11-1.51.06-3.02.13-4.54.2-.25.01-.48,0-.69-.2-.27-.26-.6-.2-.92-.13-.98.23-1.96.45-2.93.7-.41.11-.75,0-1.17-.28.81-.46,1.55-.88,2.29-1.28.12-.06.27-.08.4-.09,1.74-.07,3.49-.14,5.23-.19M22.28,17.81c0-.59.02-.61.59-.61,1.3,0,2.6,0,3.9,0,2.29,0,4.58,0,6.87,0,1.04,0,1.36-.33,1.37-1.36,0-1.07.01-2.14,0-3.21,0-.39.11-.55.53-.55,7.97,0,15.95,0,23.92,0,.41,0,.54.15.53.55-.02,1.07,0,2.14,0,3.21,0,1.07.29,1.36,1.39,1.36,3.51,0,7.03,0,10.54,0,.15,0,.31,0,.46,0,.23,0,.33.12.33.35,0,.45,0,.9,0,1.35,0,.23-.11.34-.33.35-.29.02-.59.06-.88.07-.99.04-1.98.07-2.97.1-.24,0-.45.09-.66.21-.5.29-1,.56-1.49.86-.29.18-.59.25-.93.24-.76-.02-1.52-.02-2.28-.02-.58,0-.77.2-.79.78,0,.09-.01.19,0,.28.06.46-.18.55-.58.51-.75-.07-1.51-.13-2.27-.16-.67-.03-.93.24-.94.91,0,.23,0,.47.02.7.02.2.07.44.27.51.53.2.71.67.91,1.11.18.4.48.61.9.73,2.54.73,5.08,1.47,7.63,2.21.1.03.22.1.31.08.57-.11.69.25.8.69.2.81.46,1.61.68,2.41.08.32.26.54.58.6.78.15,1.52.57,2.35.38.08-.02.18.02.26.06.67.36,1.34.72,2,1.08.2.11.28.26.28.49,0,2.4,0,4.8,0,7.2,0,.03-.02.06-.04.12-.2-.09-.29-.27-.41-.42-3.29-4.13-6.58-8.25-9.86-12.39-.35-.44-.78-.64-1.33-.57-.45.05-.89.08-1.34.12-.42.04-.74.27-1.05.53-1.44,1.23-2.47,2.77-3.36,4.41-.31.57-.69.77-1.33.73-1.28-.07-2.57-.06-3.85-.11-.51-.02-.95.12-1.29.51-.3.34-.64.4-1.04.19-.11-.06-.24-.08-.34-.14-1.03-.58-2.13-.39-3.22-.32-.28.02-.53.15-.77.31-.38.27-.77.52-1.15.78-.3.21-.54.2-.8-.1-.76-.88-1.98-.79-2.66.15-.47.65-.95,1.3-1.42,1.95-.36.48-.54.52-1.03.14-1.94-1.49-3.87-2.99-5.81-4.49-.58-.45-1.15-.89-1.73-1.34-.41-.32-.84-.35-1.35-.26-1.34.23-2.23.97-3.03,2.07-2.1,2.9-4.3,5.72-6.46,8.56-.09.11-.14.28-.32.32-.11-.14-.06-.3-.06-.45,0-2.43,0-4.86-.01-7.29,0-.4.08-.69.49-.83.17-.06.34-.16.48-.28.96-.8,2.17-.72,3.29-.92.84-.15,1.28-.53,1.44-1.36.15-.76.42-1.49.62-2.24.07-.24.14-.4.44-.31.21.06.43-.03.63-.09,2.44-.71,4.87-1.44,7.31-2.12.61-.17,1.01-.47,1.26-1.04.15-.34.3-.67.7-.81.23-.08.33-.31.34-.57,0-.22,0-.43,0-.65,0-.76-.24-1-1.01-.97-.71.03-1.42.08-2.13.15-.51.04-.57,0-.58-.5-.02-.89-.2-1.06-1.07-1.06-.43,0-.87-.02-1.3.02-.82.08-1.57-.05-2.22-.58-.98-.79-2.15-.77-3.3-.81-1.05-.04-2.1-.08-3.15-.1-.37,0-.5-.15-.48-.5.02-.31,0-.62,0-.93M56.61,40.09c-.62-.4-1.28-.69-2.03-.72-1.82-.06-3.37-.88-4.84-1.84-.87-.57-1.79-.6-2.76-.56-.2,0-.35.12-.51.22-.56.36-1.15.68-1.68,1.08-1.66,1.26-3.57,1.95-5.5,2.65-.15.05-.3.1-.43.17-1.57.75-3.2.99-4.95.95-3.82-.08-7.65-.02-11.47-.03-.17,0-.42.1-.51-.09-.07-.16.13-.29.23-.42,2.19-2.89,4.38-5.77,6.56-8.67.29-.39.69-.47,1.09-.64.81-.36,1.43-.18,2.09.39,1.03.89,2.14,1.69,3.21,2.52.08.06.2.1.22.32h-.53c-1.13,0-2.26,0-3.39,0-.32,0-.44.14-.43.45,0,.31.15.4.43.4,1.29,0,2.57.05,3.85-.02.96-.05,1.75.15,2.44.83.36.36.8.64,1.21.94.72.54,1.39.45,1.94-.26.53-.69,1.02-1.4,1.54-2.1.43-.58.93-.59,1.41-.04.43.5,1.06.62,1.63.29.36-.21.7-.45,1.05-.69.92-.65,1.94-.52,2.94-.33.39.07.75.28,1.13.42.55.21,1.08.2,1.5-.25.4-.43.88-.52,1.43-.46,1.31.13,2.63.07,3.94.09.29,0,.54.06.8.18,2.77,1.31,5.54,2.62,8.31,3.93.29.14.5.19.67-.17.19-.38-.03-.48-.31-.61-2.62-1.24-5.23-2.49-7.85-3.71-.41-.19-.44-.36-.19-.72.35-.51.69-1.03.97-1.58.58-1.13,1.54-1.93,2.43-2.78.39-.37.95-.2,1.42-.3.47-.1.8.09,1.1.48,1.45,1.85,2.93,3.69,4.39,5.53.1.12.31.25.22.42-.07.13-.29.06-.44.06-.87,0-1.73,0-2.6,0-.3,0-.51.07-.52.43,0,.38.2.42.51.42,1.16,0,2.32,0,3.48,0,.29,0,.49.09.67.32,1.31,1.67,2.64,3.32,3.96,4.98.08.11.25.2.19.35-.07.18-.27.09-.42.11-.06,0-.12,0-.19,0-4.57,0-9.13,0-13.7,0-.44,0-.81-.11-1.18-.34-.85-.54-1.72-1.04-2.57-1.59M57.85,41.99h-18.68s-.01-.05-.02-.08c.5-.19.98-.41,1.49-.56,1.77-.54,3.34-1.44,4.85-2.49.29-.2.6-.38.89-.58.89-.63,1.79-.62,2.73-.08.87.5,1.76.97,2.64,1.45.7.38,1.5.44,2.25.48,1.56.08,2.64,1.09,3.85,1.86M19.09,29.89c1.27-.76,2.55-1.52,3.83-2.28.61-.36,1.22-.73,1.84-1.09.15-.09.31-.25.48-.02.15.2.31.38.09.65-.85,1.03-1.68,2.06-2.52,3.09-.04.05-.08.1-.14.12-.83.33-1.72.5-2.5.75-.25,0-1.29-.76-1.33-.91-.06-.22.14-.25.26-.32M18.56,28.89c-.07-.16.09-.21.19-.26,1.84-1.1,3.69-2.19,5.53-3.29.1-.06.22-.17.33-.06.07.07.1.18.13.24-.01.21-.14.28-.26.35-1.75,1.04-3.51,2.08-5.26,3.11-.09.05-.19.11-.3.12-.17.03-.31-.07-.37-.22M25.9,23.35c.63.4,1.31.53,2.04.43.26-.04.51-.12.77-.15.61-.08,1.07-.3,1.09-1.02,0-.04.01-.11.04-.13.44-.27.78-.71,1.19-.95.49-.28,1.18-.19,1.78-.12.34.04.22.35.24.57.02.23-.06.39-.33.41-.34.02-.68.07-1.02.09-.22.02-.35.11-.33.35.01.23.14.34.36.32.59-.04,1.17-.09,1.76-.12.96-.06,1.91-.11,2.87-.16.24-.01.47,0,.49.34.01.31-.04.52-.42.59-1.82.3-3.63.61-5.44.92-.21.04-.45.05-.43.36.02.33.19.4.5.35,1.42-.25,2.83-.49,4.25-.72.17-.03.42-.17.49.04.07.2-.1.41-.27.55-.1.08-.25.12-.38.16-2.4.7-4.81,1.39-7.21,2.11-.47.14-.78.05-1.12-.28-1.2-1.19-1.65-2.11-1.67-3.58.02-.23-.12-.64.08-.75.23-.13.44.25.66.39M25.5,21.84c.06-.12.16-.14.27-.11,1.01.24,2.01.47,3.02.71.11.03.21.09.22.21.01.16-.12.2-.24.23-.44.09-.88.17-1.23.24-.89-.04-1.49-.44-1.99-1.03-.06-.07-.1-.16-.05-.26M26.28,28.09c-.21.73-.41,1.46-.62,2.19-.35,1.23-.47,1.33-1.76,1.48-.03,0-.06,0-.09.01-.16.01-.28-.03-.33-.19-.09-.35-.32-.68-.02-1.05.66-.8,1.31-1.61,1.96-2.41.09-.11.17-.22.26-.33.11-.12.2-.31.41-.18.18.11.24.26.18.48M18.35,18.53c.68.29,1.39.52,2.05.86.93.47,1.91.57,2.92.6,1.33.04,2.66.08,3.98.11.27,0,.51.07.74.21.54.33,1.1.63,1.65.94.1.06.26.09.26.23,0,.17-.19.17-.3.24-.2.12-.41.1-.63.05-.98-.24-1.96-.46-2.93-.69-.16-.04-.33-.06-.51-.1-.11.02-.28,0-.35.08-.55.54-1.23.3-1.85.29-1.14-.02-2.28-.11-3.42-.16-.7-.03-1.57-.74-1.74-1.43-.08-.32-.14-.63-.22-.95-.09-.35.02-.42.34-.28M14.94,18.56l.12-.06c.78.65,1.57,1.3,2.34,1.96.54.47,1.14.86,1.74,1.23.47.29,1.02.21,1.54.24,1.11.06,2.23.08,3.34.13.55.03.6.14.49.67-.06.28-.2.28-.43.27-1.96-.12-3.92-.22-5.88-.33-.65-.04-1.3-.08-1.94-.11-.36-.02-.54-.18-.61-.56-.21-1.15-.46-2.3-.7-3.44M13.82,24.66c-.13-.06,0-.16.06-.21.51-.37,1.02-.75,1.55-1.11.26-.17.57-.07.89-.09,2.54.15,5.12.31,7.69.46.2.01.37.03.39.29.02.27-.13.35-.36.38-1.07.13-2.14.26-3.22.39-1.76.21-3.53.42-5.29.61-.69.08-1.15-.45-1.71-.72M14.54,30.18c.37-.9.83-1.77,1.08-2.7.33-1.19,1-1.64,2.23-1.69,1.7-.08,3.4-.37,5.13-.5-2.78,1.65-5.56,3.3-8.34,4.95-.03-.02-.06-.05-.09-.07M15.96,107.17c0,.55-.4.92-.95.91-.53-.02-.92-.44-.9-.97.02-.52.4-.88.93-.88.55,0,.92.39.91.94M15.96,84.86c0,.55-.37.93-.93.93-.53,0-.92-.37-.92-.89,0-.54.39-.95.91-.96.55,0,.93.37.93.92M15.96,62.63c0,.53-.36.92-.88.93-.55,0-.97-.4-.97-.95,0-.52.38-.89.91-.9.56,0,.93.37.94.92M15.96,40.33c0,.54-.41.93-.95.92-.52-.01-.91-.44-.9-.98.01-.49.43-.9.93-.91.51,0,.92.42.92.96M15.98,35.45c-.47.25-.48.24-.49-.31,0-.36,0-.71,0-1.07-.35-1.24.26-1.92,1.34-2.34.16-.06.29-.18.44-.26.19-.1.23-.23.11-.41-.11-.18-.23-.3-.45-.17-.37.22-.75.44-1.12.66-.21.12-.3.08-.33-.17-.05-.5-.02-.91.55-1.16.51-.22.97-.54,1.44-.84.18-.11.32-.14.51,0,.19.15.16.29.07.48-.16.34-.03.64.24.87.21.18.43.36.65.52.25.18.24.33-.02.48-.42.24-.82.49-1.24.72-.21.12-.3.23-.16.47.14.23.29.25.49.12.05-.03.11-.06.16-.09,1.21-.88,2.61-1.33,4.04-1.67.19-.05.39-.15.49.15.08.26-.01.39-.24.51-2.16,1.17-4.32,2.35-6.48,3.52M75.59,98.49c0,4.36-2.94,7.71-7.27,8.31-1.87.26-3.76.35-5.64.46-3.66.22-7.32.48-10.84,1.65-1.1.37-2.18.79-3.21,1.34-.42.23-.8.24-1.22,0-2.97-1.57-6.18-2.34-9.49-2.74-2.55-.31-5.11-.42-7.68-.56-1.31-.07-2.62-.17-3.92-.37-3.07-.48-5.49-3.03-5.82-6.1-.05-.48-.07-.96-.07-1.44,0-16.62-.01-33.23.02-49.85,0-1.73.06-3.46.08-5.2,0-.64.51-1.12,1.15-1.12,4.95,0,9.91.02,14.86.01,12.55,0,25.11,0,37.66-.02.09,0,.19,0,.28,0,.84.01,1.1.27,1.1,1.12,0,9.17,0,18.33,0,27.5h0c0,9,0,17.99,0,26.99M78.91,31.53c.45.27.9.55,1.37.79.31.16.44.38.43.74-.02.76-.02,1.52,0,2.28,0,.34-.09.41-.4.24-1.86-1.02-3.72-2.03-5.58-3.05-.34-.18-.68-.37-1.02-.55-.26-.14-.36-.32-.24-.61.13-.3.34-.13.51-.09,1.37.31,2.67.78,3.83,1.6.1.07.22.12.33.18.2.12.31.02.41-.14.11-.18.1-.32-.08-.43-.43-.25-.85-.51-1.28-.75-.24-.14-.28-.26-.04-.44.25-.18.48-.39.72-.59.29-.25.42-.54.22-.9-.1-.19-.05-.31.09-.44.16-.14.3-.11.46-.01.58.35,1.16.71,1.76,1.04.32.18.33.46.3.82-.03.11.11.35-.08.45-.16.08-.3-.11-.45-.19-.31-.17-.62-.35-.92-.54-.21-.13-.37-.18-.53.09-.18.29.03.39.21.5M82.08,107.16c0,.52-.42.92-.96.92-.49,0-.91-.41-.92-.91-.01-.51.41-.93.94-.94.54,0,.94.39.94.93M82.08,84.88c-.01.54-.4.91-.96.91-.5,0-.91-.41-.92-.9,0-.51.42-.95.94-.95.51,0,.95.45.94.94M82.08,62.67c-.02.5-.42.89-.94.9-.52,0-.95-.42-.94-.94,0-.51.43-.91.97-.91.54,0,.93.42.91.95M82.08,40.32c0,.49-.42.92-.91.94-.53.01-.96-.4-.98-.91,0-.49.44-.96.94-.97.52,0,.94.42.94.95M81.6,30.16s-.06.06-.09.09c-2.77-1.64-5.55-3.29-8.32-4.93.01-.03.02-.06.04-.09,1.37.16,2.75.32,4.12.48.69.08,1.38.16,2.07.24.24.03.46.06.57.32.53,1.3,1.07,2.59,1.61,3.89M79.81,25.32c-2.44-.37-4.91-.6-7.36-.89-.12-.01-.24-.05-.37-.06-.23-.02-.39-.09-.37-.37.02-.3.23-.28.43-.29,2.19-.13,4.38-.25,6.57-.38.39-.02.77-.12,1.17-.07.52-.13.94.08,1.34.42.29.25.62.47.94.69.22.15.29.26,0,.42-.73.41-1.44.67-2.35.53" fill="#484747"/>
        <path d="M73.74,47.13c-.06-1.02-.96-1.64-1.73-1.43-.2.06-.43.02-.65.02-7.97-.05-15.94.04-23.91-.06-7.8-.1-15.6-.02-23.41-.02-.11,0-.22,0-.33,0-.71.07-1.27.59-1.38,1.3-.04.29-.06.59-.06.88,0,1.55,0,3.1,0,4.65,0,14.85,0,29.7,0,44.55,0,1.35.23,2.65.91,3.84,1.42,2.51,3.68,3.59,6.47,3.79,2.38.18,4.76.21,7.14.35,3.65.21,7.2.77,10.47,2.52.5.27,1.01.25,1.52,0,.37-.19.75-.37,1.13-.54,2.98-1.33,6.16-1.68,9.37-1.85,2.25-.12,4.51-.15,6.76-.37,4.54-.45,7.7-3.91,7.7-8.47,0-8.07,0-16.14,0-24.2,0-8.13,0-16.26,0-24.39,0-.19,0-.37,0-.56M66.32,103.82c-1.83.22-3.67.28-5.51.35-3.1.12-6.18.31-9.17,1.22-1.04.32-2.05.71-3.01,1.22-.42.23-.8.21-1.23-.01-2.23-1.14-4.61-1.8-7.08-2.14-2.26-.31-4.52-.4-6.8-.49-1.77-.06-3.56-.07-5.31-.42-2.93-.58-5.01-3.1-5.01-6.08,0-8.29,0-16.57,0-24.85v-24.85c0-.19,0-.37,0-.56.02-.4.22-.63.64-.64.17,0,.34,0,.51,0,7.66,0,15.33.07,22.99-.02,7.97-.09,15.94,0,23.91-.06.17,0,.34,0,.51,0,.84.02,1.04.22,1.04,1.05,0,16.31-.03,32.61.02,48.92,0,3.48-2.59,6.89-6.52,7.36" fill="#484747"/>
        <path d="M38.14,19.17c-.07.12-.13.25-.18.38-.52,1.26-.06,2.17,1.26,2.48.09.02.18.05.27.06.41.04.44.22.26.56-.49.92-.53,1.86-.07,2.81.1.2.1.36-.02.56-.35.61-.3,1.22.17,1.71.28.29.47.57.56.97.1.46.45.72.92.68.37-.03.68,0,.91.34.1.15.32.22.5.2.44-.05.84-.04,1.18.32.13.13.36.11.54.07.34-.08.61.12.9.17.81.14,1.63.29,2.46.24.13,0,.25-.1.4-.03.4.17.79.13,1.16-.07.13-.07.25-.1.4-.06.46.15.88.09,1.26-.23.09-.07.2-.09.31-.06.88.24,1.55-.63,2.42-.46.06.01.17-.09.22-.16.16-.25.37-.36.63-.27.71.02,1.05-.21,1.16-.85.05-.3.19-.5.4-.69.6-.56.68-1.19.25-1.87-.11-.18-.09-.3-.01-.47.47-.94.44-1.88,0-2.82q-.24-.51.32-.63c.09-.02.18-.03.27-.05,1.41-.31,1.53-1.31,1.18-2.42-.04-.12-.09-.23-.16-.33-.36-.55-.24-1,.16-1.5.79-.97.43-1.85-.81-2.08-.18-.03-.37-.04-.55-.05-.16,0-.29-.05-.42-.16-1.2-1.07-1.96-1.13-3.33-.28-.19.12-.3.12-.47-.06-.74-.76-1.69-.78-2.41-.04-.17.17-.25.19-.44.03-1.12-.93-2.22-.94-3.36-.03-.19.15-.29.2-.49,0-.73-.73-1.62-.74-2.33,0-.23.24-.35.27-.62.05-.85-.68-2.06-.71-2.83-.02-.4.35-.79.5-1.3.57-1.36.18-1.72,1.1-.85,2.15.37.44.46.86.15,1.35M49.09,22.97c.22.2.44.38.66.58.07.06.15.13.11.24-.04.11-.15.1-.24.1-1.04,0-2.07,0-3.11,0-.09,0-.2.02-.24-.08-.05-.12.05-.2.13-.27.25-.23.52-.44.76-.68.42-.41.47-.72.23-1.21-.23-.47-.67-.76-1.15-.7-.3.04-.62.09-.9.21-.46.19-.83.09-1.18-.25,2.61-.84,5.2-.84,7.82,0-.28.27-.56.46-.97.32-.29-.1-.59-.18-.89-.24-.6-.12-1.09.12-1.35.64-.25.52-.16.93.32,1.36M44.32,21.76c.22.16.43.19.69.12.39-.1.76-.28,1.16-.31.28-.02.53.05.66.33.13.28-.03.48-.23.64-.44.37-.88.73-1.15,1.25-.1.2-.34.22-.54.21-.21-.01-.16-.23-.2-.37-.33-1.17-1.43-1.83-2.53-1.5-1.07.32-1.63,1.54-1.24,2.68.06.19.26.4-.1.51-.3.09-.53.11-.67-.25-.12-.33-.19-.65-.18-1,.02-1.18.66-1.97,1.64-2.5.91-.48,1.82-.42,2.67.18M43.59,24.66c-.32.16-.64.3-.95.48-.39.22-.68.1-.93-.22-.37-.46-.36-.97-.13-1.48.22-.49.6-.77,1.17-.75.56-.04.94.26,1.22.69.33.51.16,1.01-.38,1.28M42.91,29.27c-.37.02-.44-.25-.46-.55-.04-.46.34-.45.62-.5.32-.06.27.2.29.38-.02.31,0,.66-.45.67M44.83,29.27c0,.28-.15.43-.42.45-.26.02-.43-.12-.45-.37-.03-.45-.06-.9,0-1.34.05-.36.44-.45.72-.58.14-.06.15.11.15.22,0,.28,0,.55,0,.83,0,.26,0,.52,0,.79M46.33,28.48c0,.36,0,.71,0,1.07,0,.27-.11.45-.4.46-.3,0-.48-.15-.48-.44-.01-.73-.01-1.45,0-2.18,0-.34.28-.31.51-.32.24,0,.38.08.38.35,0,.35,0,.71,0,1.07M47.73,29.72c0,.23-.05.45-.34.45-.25,0-.4-.16-.4-.41,0-.79,0-1.58,0-2.36,0-.23.13-.32.35-.33.24,0,.39.07.39.34,0,.42,0,.83,0,1.25h0c0,.36,0,.71,0,1.07M49.2,29.67c0,.32-.14.51-.47.51-.32,0-.35-.24-.35-.49,0-.37,0-.74,0-1.11,0-.37,0-.74,0-1.11,0-.31.14-.4.43-.4.27,0,.4.1.39.38,0,.74,0,1.48,0,2.23M50.69,29.57c0,.3-.17.45-.47.44-.28,0-.42-.17-.43-.44,0-.37,0-.74,0-1.11h0c0-.34,0-.68,0-1.02,0-.28.13-.38.4-.38.27,0,.51.02.51.37,0,.71,0,1.42,0,2.13M52.19,28.4c-.02.09,0,.18,0,.28h-.01c0,.23.02.46,0,.69-.02.23-.17.36-.4.35-.23,0-.39-.13-.4-.37-.02-.57-.02-1.14-.01-1.71,0-.24.13-.24.3-.14.35.2.66.41.54.89M53.27,29.28c-.43,0-.43-.3-.43-.64.04-.15-.09-.47.27-.41.25.04.65,0,.62.44-.02.28-.03.61-.46.61M55.93,27.22c-.26.37-.63.53-1.07.56-.95.06-1.86-.11-2.66-.65-.72-.48-1.49-.69-2.37-.66-1.22.04-2.44.03-3.67,0-.77-.02-1.47.16-2.11.59-.82.56-1.74.79-2.73.72-.43-.03-.83-.16-1.1-.52-.34-.45-.24-.89.25-1.16.33-.19.69-.17,1.11-.17.58.05,1.2-.12,1.74-.46,1.22-.77,2.54-1.05,3.98-.95,1.02.07,2.04,0,3.06,0,.27,0,.52.05.76.16.45.21.91.4,1.34.64.77.44,1.58.71,2.48.62.25-.03.49.05.71.18.43.25.53.69.25,1.11M52.01,24.03c-.02-.74.62-1.35,1.41-1.34.58,0,.99.27,1.18.8.19.54.17,1.07-.24,1.52-.21.23-.46.31-.75.17-.43-.21-.86-.42-1.29-.63-.22-.11-.3-.29-.31-.52M55.92,25.17c-.09.2-.21.26-.44.21-.34-.08-.45-.17-.29-.55.43-1.08-.15-2.37-1.15-2.67-1.2-.36-2.33.32-2.6,1.55-.03.13-.02.31-.21.31-.2,0-.43-.02-.54-.22-.3-.54-.76-.93-1.23-1.31-.17-.13-.27-.3-.18-.53.09-.24.26-.38.52-.38.43,0,.82.15,1.22.28.3.1.56.09.83-.1.88-.63,1.83-.63,2.76-.13.98.54,1.51,1.39,1.57,2.41,0,.47-.1.81-.26,1.14M56.94,16.77c0-.16-.16-.4.12-.47.3-.07.59,0,.81.23.16.16.2.35.08.55-.14.22-.3.43-.46.64-.35.47-.39.96-.13,1.48.21.42.42.83.4,1.32-.01.4-.18.69-.58.8-.42.12-.84.2-1.26.3-.13.03-.25-.01-.35-.09-1.01-.8-2.26-.95-3.45-1.26-.76-.19-1.53-.35-2.39-.54.58-.39,1.07-.73,1.38-1.27.15-.27.25-.03.32.08.73,1.23,2.56,1.62,3.93.99,1.05-.48,1.62-1.47,1.58-2.76M51.87,17.84c1.55,1.31,2.95,1.06,4.25-.42-.01.89-.73,1.56-1.74,1.71-1.13.17-2.19-.36-2.51-1.29M53.08,16.31c.19-.56.89-1.03,1.52-1.04.64,0,1.28.41,1.53,1.02.05.13.19.31-.01.4-.2.09-.29-.07-.38-.23-.35-.69-.85-.94-1.49-.75-.38.12-.65.36-.75.75-.06.2-.16.32-.36.25-.22-.08-.1-.26-.05-.39M55.04,17.42c-.47.78-1.74.8-2.51,0h2.51ZM50.85,15.4c.35-.23.75-.23,1.09,0,.35.24.44.62.4,1.03-.02.2-.16.29-.35.29-.2,0-.4,0-.6,0h0c-.06,0-.12.01-.19,0-.27-.03-.63.13-.72-.3-.08-.41.03-.79.38-1.03M46.43,16.25c.2-.64.94-1.17,1.63-1.17.76,0,1.47.5,1.68,1.22.04.13.17.31-.05.4-.21.08-.34-.04-.41-.25-.17-.53-.5-.88-1.09-.92-.65-.05-1.08.24-1.28.88-.06.2-.13.36-.37.3-.28-.07-.17-.28-.11-.45M49.5,17.31c-.63.81-2.21.84-2.66.12.87-.19,1.74-.11,2.66-.12M45.89,17.58c1.2,1.35,3.05,1.39,4.3.1.13-.14.25-.47.48-.3.17.13,0,.4-.09.59-.39.86-1.3,1.36-2.77,1.36-.74-.02-1.66-.33-2.19-1.35-.06-.12-.11-.26-.15-.39-.03-.09-.05-.19.06-.24.08-.04.15,0,.21.06.06.05.11.11.16.17M43.89,15.8c.2-.47.74-.69,1.24-.5.44.17.68.73.54,1.2-.05.16-.16.21-.31.22-.21,0-.43,0-.64,0h0c-.08,0-.15,0-.23,0-.67,0-.86-.3-.59-.92M44.22,17.89c-.23.86-1.28,1.38-2.37,1.25-.99-.12-1.84-.79-1.78-1.71,1.27,1.39,2.64,1.56,4.15.46M43.3,17.31c.09,0,.2,0,.23.11.03.11-.07.16-.14.22-.64.48-1.79.37-2.4-.32.83,0,1.57,0,2.3,0M39.99,16.35c.17-.58.94-1.1,1.59-1.08.67.02,1.36.52,1.52,1.11.01.04.02.09.04.13-.01.2-.14.22-.29.17-.06-.02-.11-.1-.15-.17-.72-1.19-1.63-1.19-2.31,0-.08.15-.17.22-.33.15-.15-.07-.1-.2-.07-.32M38.25,16.56c.18-.25.47-.28.75-.27.2,0,.24.13.24.32,0,1.22.27,2.34,1.5,2.9,1.22.55,2.41.45,3.49-.38.24-.18.4-.43.56-.67.08-.13.19-.2.28-.03.29.56.77.91,1.4,1.3-.89.2-1.64.36-2.39.54-1.23.3-2.5.48-3.54,1.3-.12.1-.26.08-.4.05-.33-.08-.67-.14-.99-.23-.64-.17-.85-.52-.73-1.18.06-.34.19-.65.36-.95.32-.57.26-1.09-.15-1.59-.1-.12-.19-.24-.28-.37-.17-.23-.27-.47-.09-.73" fill="#484747"/>
        <path d="M68.49,76.2c-3.89,0-7.77,0-11.66,0-.15,0-.31,0-.46,0-.22,0-.33-.11-.36-.34-.1-.68-.12-1.36-.11-2.04,0-.24.09-.37.34-.41,1.14-.18,1.74-1.2,1.03-2.44-.71-1.24-1.46-2.44-2.19-3.67-.14-.24-.29-.28-.53-.17-.47.21-.96.36-1.46.47-1.44.33-2.79.2-4.03-.68-.4-.28-.59-.6-.59-1.11.02-3.61.01-7.22.01-10.83,0-.16,0-.31,0-.46,0-.21-.11-.3-.31-.33-.4-.04-.53.08-.53.6,0,3.47-.05,6.94.03,10.41.02,1.05-.45,1.6-1.27,2.02-.37.19-.75.35-1.17.44-1.3.27-2.52-.02-3.72-.5-.27-.11-.47-.15-.66.16-.71,1.23-1.48,2.44-2.17,3.68-.64,1.16-.23,2.07,1.04,2.39.28.07.37.2.38.48.02.56-.07,1.11-.11,1.67-.05.64-.09.66-.73.66-3.79,0-7.59,0-11.38,0-.16,0-.31,0-.46,0-.21,0-.3.11-.32.31-.04.42.06.52.58.52,3.79,0,7.59,0,11.38,0,.68,0,.67,0,.51.68-.19.78-.48,1.54-.63,2.33-.48,2.49.55,4.4,2.89,5.37.89.37,1.82.6,2.77.75.46.07.92.13,1.38.2.64.09,1.09.5,1.52.93.28.28.14.68.14,1.03.01,1.97,0,3.93,0,5.9,0,2.14,0,4.27,0,6.41,0,.24-.04.51.32.57.41.06.53-.06.53-.57,0-4.2,0-8.39,0-12.59,0-.84.39-1.36,1.21-1.6.15-.04.3-.08.45-.1,1-.14,2-.26,2.96-.55,1.25-.38,2.41-.92,3.22-2,1.01-1.35.94-2.86.55-4.4-.13-.52-.31-1.04-.45-1.56-.21-.78-.2-.78.59-.78,3.73,0,7.46,0,11.19,0,.16,0,.31,0,.46,0,.32,0,.43-.17.42-.47-.01-.44-.33-.37-.6-.37M54.93,83.98c-.79.6-1.71.93-2.67,1.13-.74.15-1.49.26-2.24.37-.67.09-1.25.35-1.73.82-.21.2-.39.22-.6.02-.64-.65-1.46-.82-2.32-.92-1.33-.15-2.63-.42-3.81-1.08-.2-.11-.39-.25-.58-.38-.08-.06-.23-.11-.18-.24.04-.11.18-.11.29-.12,2.36-.24,4.71-.75,7.09-.54,2.26-.18,4.46.22,6.66.52.11.02.29-.03.32.12.04.16-.13.23-.23.31M42.25,80.11c0-.6,0-1.21,0-1.81,0-.33.16-.42.46-.42.31,0,.46.1.45.43,0,1.11,0,2.23,0,3.34,0,.29-.46.65-.75.6-.21-.03-.16-.2-.16-.33,0-.6,0-1.21,0-1.81M45.96,81.37c0,.34-.09.5-.47.51-1.49.04-1.49.05-1.49-1.44,0-.96.02-1.92,0-2.88,0-.41.17-.61.55-.66.18-.03.37-.04.55-.03.72.02.86.16.86.88,0,.56,0,1.11,0,1.67,0,.65-.01,1.3,0,1.95M49.31,81.67h-.08c0-.6,0-1.21,0-1.81,0-.71-.52-1.24-1.17-1.23-.64,0-1.12.52-1.14,1.21-.01.43-.02,1.83-.02,1.83h-.08c0-1.54,0-3.09,0-4.63,0-.25.12-.37.37-.37.56,0,1.11,0,1.67,0,.35,0,.46.15.46.48,0,1.5,0,3.03,0,4.53M48.46,81.22c0,.25-.1.37-.35.37-.25,0-.38-.1-.38-.35,0-.46,0-.92,0-1.38,0-.2.08-.37.31-.38.24,0,.38.13.4.36v1.38ZM52.18,79.46c0,.66,0,1.33,0,1.99,0,.29-.11.43-.41.42-.42-.01-.83,0-1.25,0-.25,0-.37-.11-.36-.36,0-1.36,0-2.72,0-4.08,0-.05,0-.09.02-.14.09-.33.64-.51,1.31-.41.36.05.7.15.69.64-.01.65,0,1.3,0,1.95M53.93,81.71c0,.18.11.44-.19.49-.3.05-.69-.25-.7-.52-.01-.59,0-1.18,0-1.76,0-.53.01-1.05,0-1.58,0-.35.14-.46.47-.46.32,0,.45.13.44.45-.01.59,0,1.18,0,1.76,0,.54.01,1.08,0,1.63M56.15,82.31c-.12.52-.42.54-.85.49-.43-.06-.6-.22-.59-.68.03-1.5,0-3,.02-4.51,0-.45-.15-.62-.59-.58-.2.02-.4,0-.6,0-.25.01-.39-.08-.57-.28-.61-.67-1.42-.84-2.29-.69-.22.04-.44.16-.59-.15-.06-.13-.25-.08-.39-.08-1.08,0-2.17,0-3.25,0-.09,0-.23-.02-.27.03-.3.42-.69.16-1.05.17-.78.02-1.51.13-1.97.87-.09.15-.23.14-.37.14-.29,0-.59.02-.88,0-.36-.02-.5.12-.49.49.02.79,0,1.58,0,2.37h0c0,.79-.01,1.58,0,2.37,0,.36-.15.49-.48.54-.94.12-1.01.05-1.19-.89-.18-.95.04-1.85.31-2.74.54-1.78.97-3.59.9-5.47,0-.11,0-.22-.01-.32q-.08-.78-.86-.8c-.72-.02-1.02-.47-.65-1.12.59-1.07,1.25-2.1,1.87-3.16.16-.28.36-.16.56-.09,1.1.36,2.23.53,3.38.33.92-.16,1.74-.54,2.44-1.15.22-.19.37-.21.59-.02,1.63,1.39,3.49,1.5,5.47.96.96-.26.7-.39,1.24.49.53.86,1.04,1.72,1.54,2.6.15.27.32.56.09.87-.22.3-.56.31-.88.3-.59-.02-.61,0-.67.62-.2,2.14.31,4.18.93,6.2.29.96.4,1.93.17,2.93" fill="#484747"/>
        <path d="M27.1,61.17c0,.59.04.64.63.64.96,0,1.92,0,2.88,0,.12,0,.28-.05.34.07.08.15-.08.25-.15.36-.19.3-.45.12-.67.07-1.13-.24-1.13-.25-1.37.89-.25,1.17-.44,1.1.87,1.36.32.06.45.22.57.54.27.7,0,1.1-.55,1.43-.11.06-.2.15-.3.22-.16.12-.2.26-.06.43.35.43.7.87,1.05,1.3.15.19.29.2.47.05.23-.19.46-.36.68-.56.21-.18.41-.25.66-.05.09.08.21.15.33.17.47.08.56.37.55.8-.02,1.1-.12.99.99,1q1.22,0,1.26-1.24c0-.19,0-.35.21-.47.91-.5.91-.5,1.74.15.08.07.18.13.26.2.18.16.33.12.47-.06.32-.41.66-.82.99-1.23.16-.21.15-.39-.07-.56-.25-.19-.48-.39-.73-.57-.2-.15-.21-.31-.18-.56.09-.7.42-1.09,1.14-1.12.12,0,.24-.06.36-.09.22-.06.3-.2.24-.42-.12-.51-.24-1.02-.36-1.54-.06-.28-.23-.33-.48-.26-.3.08-.6.15-.9.21-.36.07-.57-.22-.58-.47-.02-.3.31-.14.47-.15.93-.02,1.86-.03,2.79-.01.45,0,.61-.17.59-.6-.02-.63,0-1.27,0-1.9,0-1.16,0-2.32,0-3.48,0-.19.02-.49-.31-.31-.48.26-.49,0-.51-.38-.08-1.54-.19-3.09-.27-4.63-.02-.33-.16-.43-.46-.43-.54.01-1.08.02-1.63,0-.4-.02-.54.13-.56.53-.08,1.71-.2,3.42-.31,5.28-.08-.73-.38-.36-.58-.25-.27.16-.37.14-.38-.2-.08-1.62-.19-3.24-.27-4.86-.02-.35-.13-.52-.49-.49-.34.02-.68,0-1.02,0-1.22.04-1.08-.27-1.18,1.15-.14,1.9-.22,3.79-.32,5.69-.02,0-.04,0-.06.01,0-.2.01-.4,0-.6-.02-.29.14-.68-.1-.83-.25-.16-.52.17-.77.31-.5.27-.57.23-.6-.33-.09-1.67-.19-3.33-.28-5-.01-.29-.14-.42-.43-.41-.56,0-1.11.02-1.67,0-.37-.01-.51.11-.54.5-.13,2.35-.3,4.69-.43,7.04-.02.37-.14.62-.48.76-.38.14-.48.42-.47.81.02.7,0,1.39,0,2.09M38.17,62.97c.62-.15.65-.12.77.47.06.29-.05.43-.3.45-.78.06-1.27.38-1.2,1.25,0,.06-.03.12-.04.18q-.25.83.46,1.39c.38.3.31.85-.13,1.03-.1.04-.18,0-.25-.06-.1-.07-.2-.15-.29-.23-.23-.18-.44-.43-.71-.51-.28-.08-.43.3-.67.42-.25.13-.51.23-.79.26-.27.03-.37.18-.36.44,0,.23-.01.47,0,.7.02.36-.14.48-.49.51-.38.03-.56-.06-.52-.46.01-.12-.01-.25,0-.37.06-.49-.03-.84-.65-.85-.31,0-.59-.2-.77-.47-.2-.29-.37-.25-.59-.04-.17.16-.36.29-.54.44-.24.2-.43.37-.71,0-.27-.36-.28-.59.11-.81.05-.03.1-.07.15-.11q.59-.47.32-1.15c-.11-.27-.15-.54-.11-.82.06-.37-.11-.5-.44-.55-.26-.04-.52-.11-.77-.17-.39-.1-.26-.38-.21-.64.05-.27.17-.45.47-.32.77.32,1.33.2,1.69-.64.22-.52.71-.57,1.29-.44-1.93,1.33-1.63,3.44-.66,4.43,1.16,1.19,3.05,1.1,4.15-.2,1.13-1.33.73-3.04-.99-4.29.8-.18,1.12-.03,1.63.73q.42.63,1.18.45M34.17,62.23c1.22,0,2.14.93,2.13,2.15-.01,1.19-.94,2.08-2.16,2.07-1.14-.01-2.09-.96-2.08-2.07.01-1.19.95-2.15,2.11-2.15M37.81,56.32c.09-1.73.18-3.46.28-5.19.03-.54.14-.57.97-.56.46,0,.46.27.48.61.07,1.47.16,2.93.26,4.4.02.3-.04.5-.32.64-.43.22-.83.48-1.25.71-.4.23-.44.2-.44-.24,0-.12,0-.25,0-.37h.02M33.9,50.97c.02-.28.15-.37.41-.39.91-.07,1.01.02,1.05.91.06,1.24.13,2.47.2,3.83.29.64-.18.97-.77,1.25-.32.15-.62.35-.93.53-.19.11-.32.13-.31-.16.12-1.99.23-3.98.34-5.97M29.07,51.01c.03-.53.4-.4.67-.42.71,0,.75.05.79.73.08,1.54.17,3.08.27,4.63.02.32-.06.52-.36.67-.49.25-.97.54-1.45.82-.22.13-.3.08-.29-.18.12-2.08.25-4.16.36-6.25M29.1,58.13c.92-.39,1.74-.99,2.61-1.5.48-.28.49-.27.49.27,0,.46.01.93,0,1.39-.01.39.12.48.46.28,1.11-.65,2.22-1.29,3.33-1.93.13-.07.26-.24.41-.17.16.08.07.28.08.42.01.43,0,.87,0,1.3,0,.44.07.47.45.26,1.07-.61,2.15-1.22,3.21-1.85.32-.19.44-.19.43.24-.02,1.24-.02,2.47,0,3.71,0,.38-.12.52-.51.51-1.33-.02-2.66,0-4.65,0-1.9-.06-4.47.14-7.03.09-.61,0-.54-.02-.63-.63-.18-1.18.22-1.92,1.35-2.39" fill="#484747"/>
        <path d="M43.63,97.91c-1.22-.93-2.41-1.89-3.62-2.83-.24-.19-.38-.38-.36-.7.03-.54-.13-1.04-.37-1.52-.29-.57-.69-1.05-1.27-1.38-.57-.32-1.09-.72-1.78-.76-.15,0-.23-.19-.32-.32-.86-1.12-1.72-2.23-2.58-3.35-.19-.25-.36-.5-.44-.81-.08-.29-.24-.57-.52-.69-.72-.3-.91-1.02-1.29-1.58-.2-.3.22-.41.39-.57.09-.09.17-.08.25.05.25.42.67.48.96.08.61-.85,1.41-1.45,2.39-1.82.12-.04.27-.16.38-.02.09.11-.01.24-.06.35-.23.54-.43,1.1-.54,1.68-.19,1.01-.07,1.97.44,2.88.1.18.23.36.45.34.26-.02.35.14.45.32.49.85,1.06,1.65,1.87,2.22,1.06.74,1.79,1.69,2.07,2.97.05.21.15.43.42.44.28,0,.41-.19.48-.43.08-.28.15-.57.24-.92.6.86,1,1.73,1.26,2.66.05.17.1.34.34.26.23-.07.23-.23.18-.41-.33-1.19-.87-2.28-1.65-3.25-.13-.16-.3-.23-.49-.16-.2.07-.28.24-.28.44,0,.25,0,.5,0,.75-.47-1.14-1.18-2.02-2.17-2.72-.86-.61-1.48-1.44-1.95-2.39-.14-.29-.27-.56-.67-.52-.17.02-.23-.14-.28-.27-.1-.26-.18-.52-.23-.8-.19-1.2.27-2.25.74-3.3.11-.24.3-.47.08-.72-.21-.25-.48-.14-.74-.08-1.25.34-2.29,1-3.08,2.03-.33-.5-.51-.55-1-.24-.15.1-.31.2-.44.32-.21.19-.36.17-.51-.08-.15-.25-.33-.48-.5-.73-.7-1.04-.7-1.04-1.71-.28-.23.17-.24.32-.09.54.39.56.76,1.13,1.15,1.69.19.27.23.5.07.81-.42.81-.58,1.72-.6,2.64-.02,1.16.1,2.29.45,3.45-.32-.03-.58-.09-.73.19-.13.26.04.44.17.63.65.98,1.07,2.05,1.17,3.24.04.39.04.77-.01,1.15-.03.2.02.38.27.4.24.02.26-.17.28-.34,0-.05,0-.09,0-.14.1-1.43-.18-2.77-.9-4.02-.09-.16-.24-.3.09-.4.35-.1.35-.4.24-.69-.47-1.31-.52-2.67-.45-4.03.03-.56.14-1.11.39-1.62.05-.1.13-.35.27-.16.26.35.65.66.65,1.14,0,.44.2.72.51.95.14.11.27.23.36.38,1,1.55,2,3.1,3,4.65.13.2.13.45.02.66-.2.39-.26.81-.16,1.23.17.72-.15,1.23-.66,1.67-1.55,1.37-3.14,2.68-4.93,3.72-.18.11-.19.36-.02.48.1.07.23.07.32,0,.67-.45,1.3-.86,1.92-1.29.64-.44,1.26-.9,1.82-1.43.27-.25.43-.28.58.08.38.86.94,1.6,1.69,2.18.22.17.27.32.06.52-.09.09-.18.19-.26.29-.05.06-.06.14-.05.22.04.22.32.3.47.13.24-.26.47-.52.7-.77.05-.06.13-.15.12-.19-.14-.37.13-.54.34-.73.23-.21.33-.41.03-.64-.16-.13-.15-.28-.06-.46.12-.26.27-.48.54-.61.38-.19.69-.47.94-.81.4-.56.3-.39,1.03.48.71.84,1.35,1.73,2,2.62.24.32.43.32.76.03.5-.43,1.02-.85,1.58-1.18.61-.36.75-.5.33-.83M31.24,85.96c-.22.08-.25-.2-.37-.26-.33-.15-.52-.48-.65-.81-.22-.59-.6-1.08-.95-1.59-.09-.14-.08-.26.06-.36.23-.17.47-.13.53.79.05.88.71,1.5,1.53,1.8.07.03.08.11.09.16-.02.15-.13.21-.24.26M38.91,93.64c-.06-.07-.15-.13-.17-.21-.15-.56-.63-.78-1.08-.99-.32-.15-.41-.36-.45-.67.96.26,1.51.9,1.7,1.87M33.53,89.97c-.49-.76-.99-1.53-1.47-2.3-.08-.12-.24-.25-.08-.4.14-.13.32-.23.45-.32.18.01.23.11.29.2.64.83,1.26,1.67,1.91,2.5.2.26.11.39-.14.53-.6.33-.59.35-.95-.21M34.37,91.29c-.12-.18-.06-.39.13-.49.15-.07.29-.16.43-.24.21-.13.38-.1.51.11.24.41.59.67,1.1.71-.48.21-.67.64-.9,1.04-.17.3-.3.36-.51.02-.24-.4-.49-.78-.76-1.16M35.34,99.31c-.76-.6-1.26-1.39-1.59-2.3-.06-.16.03-.27.17-.34.14-.07.2.04.25.13.4.77.95,1.41,1.63,1.94.07.05.11.14.15.19,0,.28-.42.53-.61.38M38.36,94.49c-.29.37-.44.79-.53,1.26-.12.63-.53,1.09-1.1,1.36-.33.16-.56.37-.69.7-.04.09-.07.22-.23.22-.06-.05-.13-.1-.2-.17-.31-.31-.55-.66-.79-1.02-.26-.4-.43-.76-.03-1.2.21-.23.16-.58.15-.89,0-.31-.03-.62,0-.93.01-.19.03-.46.34-.16.21.2.31-.05.36-.18.17-.44.5-.78.72-1.19.05-.09.1-.21.23-.2.16.02.16.17.19.28.04.15.05.3.08.45.03.15.11.29.27.26.76-.17.95.47,1.29.89.12.16.08.35-.05.52M42.72,98.51c-.38.26-.77.53-1.13.82-.38.31-.44-.12-1.12-1.34-.44-.79-1.08-1.43-1.79-1.99-.16-.13-.25-.29-.23-.47,0-.23.11-.43.29-.55.21-.14.34.07.47.18,1.17.91,2.32,1.84,3.51,2.74.35.27.3.41,0,.62" fill="#484747"/>
        <path d="M48.03,69.19c-1.5.02-2.64,1.17-2.64,2.66,0,1.51,1.18,2.69,2.67,2.69,1.42,0,2.65-1.25,2.65-2.69,0-1.44-1.25-2.68-2.68-2.66M48.02,73.7c-1.01,0-1.83-.8-1.85-1.82-.02-.98.86-1.87,1.86-1.87,1,0,1.82.82,1.83,1.84,0,1.06-.79,1.85-1.84,1.86" fill="#484747"/>
        <path d="M68.4,81.15c-.13-.07-.28-.02-.34.11-1.03,1.96-2.85,4.27-4.45,6.3-.38.48-.74.94-1.08,1.38-1.19.46-2.18,1.4-2.71,2.56,0-.07-.02-.13-.03-.2.07-.45.16-.91.27-1.41,2.36-.71,1.91-3.82,1.7-5.35-.01-.08-.06-.14-.12-.18-.07-.04-.15-.04-.22-.02h-.03c-1,.41-1.77,1.26-2.13,2.35-.35,1.07-.23,2.19.31,3.1-.03.11-.05.23-.07.33-.51-1.34-1.53-2.49-2.83-3.13-.09-.04-.19-.03-.27.03-.08.06-.11.16-.09.25.35,1.79,1.02,4.16,2.9,4.61-.12,1.17-.09,2.32.14,3.89.02.13.13.22.25.22.01,0,.02,0,.04,0,.14-.02.24-.15.22-.29-.12-.86-.19-1.59-.2-2.27,0,0,.01,0,.02,0h0c2.57,0,3.76-3.09,4.14-4.42,0,0,0,0,0-.01.02-.08,0-.16-.05-.23-.06-.07-.14-.1-.23-.09-.06,0-.12.02-.18.03.21-.27.43-.55.66-.83,1.61-2.05,3.44-4.37,4.5-6.38.06-.13.02-.28-.11-.34M59.74,86.84c.28-.84.84-1.52,1.56-1.89.24,1.86.23,3.72-1.1,4.35.08-.34.17-.7.27-1.08.04-.14-.05-.28-.18-.31-.14-.04-.28.05-.31.18-.08.32-.16.61-.23.9-.24-.67-.25-1.42-.01-2.14M56.92,87.7c1.05.66,1.84,1.71,2.2,2.89-.19-.27-.39-.53-.62-.78-.1-.1-.26-.11-.36-.01-.1.1-.11.26-.01.36.3.32.55.69.78,1.06-1.14-.56-1.68-2.13-1.99-3.52M60.32,92.82c.35-.36.74-.72,1.22-1,.12-.07.16-.23.09-.35-.07-.12-.23-.16-.35-.09-.48.28-.88.63-1.22.98.4-1.49,1.63-2.74,3.14-3.1-.4,1.19-1.28,3.13-2.88,3.56" fill="#484747"/>
        <path d="M67.28,90.4l-4.07,3.98c-.11-.37-.31-.71-.61-1-.1-.1-.26-.1-.36,0-.1.1-.1.26,0,.36.44.43.62,1,.52,1.64-.2,1.31-1.47,2.7-3.3,3.62-.59.26-1.25.39-1.87.5-.35.06-.69.11-1.02.14-.05-.09-.1-.17-.16-.24-.06-.07-.11-.14-.13-.2-.04-.15-.03-.26.03-.37.24-.39,1.12-.55,1.41-.61.1-.02.22-.04.33-.09.14-.06.25-.14.35-.21.07-.05.14-.1.22-.14.19-.09.4-.14.61-.15.04,0,.1,0,.17-.05.08-.04.12-.11.14-.15.12-.21.33-.36.56-.42.14-.04.22-.17.18-.31-.04-.14-.17-.22-.31-.18-.34.09-.64.3-.84.6-.25.02-.51.09-.74.19-.11.05-.21.12-.3.19-.08.06-.16.12-.24.15-.07.03-.15.04-.24.06-.65.12-1.44.33-1.75.84-.14.23-.17.5-.08.78.04.13.11.23.18.31-.2,0-.39-.02-.57-.06-.1-.02-.18-.05-.26-.08-.09-.04-.11-.07-.12-.08,0,0,0-.02.01-.08.03-.11.12-.21.22-.32.05-.06.1-.11.14-.17,0,0,.01-.01.02-.02,0,0,.01-.02.02-.02,0,0,0-.01,0-.02.02-.03.04-.05.05-.08.14-.52.77-.87,1.37-1.22.45-.26.92-.52,1.22-.87.09-.11.08-.27-.03-.36-.11-.09-.27-.08-.36.03-.24.28-.65.52-1.09.76-.59.33-1.18.67-1.48,1.2-.02-.02-.04-.04-.04-.05-.08-.11-.14-.23-.16-.35-.02-.16.02-.29.16-.4.1-.08.21-.15.33-.23.1-.06.2-.13.3-.2l.2-.15c.15-.11.3-.23.46-.34.31-.21.64-.43.93-.71.51-.49.82-1.15.91-1.91.01-.09-.03-.18-.1-.24-.07-.05-.17-.06-.26-.03-.26.12-.77.22-1.05.21-.08,0-.16.03-.21.09-.05.06-.07.14-.05.22.12.53-.29.88-.42.98-.25.18-.54.26-.76.22.02-.09.05-.18.07-.26.44-1.62.64-2.35,2.47-2.99.13-.05.2-.19.16-.32-.05-.13-.19-.2-.32-.16-2.08.72-2.33,1.65-2.79,3.33-.04.15-.09.32-.13.48-.03.11.01.23.11.29.4.25,1.01.17,1.5-.18.43-.31.66-.74.66-1.21.18-.02.37-.05.55-.1-.12.47-.35.87-.69,1.2-.26.25-.56.46-.86.66-.17.11-.32.23-.48.35l-.19.15c-.08.06-.17.12-.26.17-.13.08-.26.16-.39.27-.27.23-.38.52-.33.86.03.2.12.41.25.58,0,0,.07.09.17.19-.12.13-.25.29-.31.49-.04.14-.05.27,0,.39.05.16.18.3.39.39.11.05.23.09.37.12.26.06.52.08.8.08.51,0,1.04-.08,1.58-.17.66-.11,1.35-.25,2.01-.54,1.99-1.01,3.36-2.54,3.59-4.01.02-.16.03-.31.03-.46,0,0,0,0,.01,0l4.32-4.23c.1-.1.1-.26,0-.36-.1-.1-.26-.1-.36,0" fill="#484747"/>
        <path d="M51.96,51.82h0c.43,0,.69.34,1,.73.35.45.75.96,1.47.96h.01c.75,0,1.07-.56,1.33-1.01.26-.46.43-.71.82-.72.44,0,.7.34,1.01.73.35.45.75.95,1.48.96.75,0,1.07-.56,1.33-1.01.26-.46.43-.71.82-.72h0c.43,0,.7.34,1,.73.35.45.75.97,1.48.96.75,0,1.07-.56,1.33-1.01.26-.46.43-.71.82-.72.16,0,.29-.13.29-.3,0-.16-.13-.29-.29-.29h0c-.75,0-1.07.56-1.33,1.01-.26.45-.43.71-.82.71-.43.01-.7-.34-1.01-.73-.35-.45-.75-.96-1.47-.96h-.01c-.75,0-1.07.56-1.33,1.01-.26.45-.43.71-.82.71h0c-.43,0-.69-.34-1-.73-.35-.45-.76-.96-1.48-.96-.75,0-1.07.56-1.33,1.01-.26.46-.43.71-.82.72h0c-.43,0-.69-.34-1-.73-.35-.45-.75-.97-1.48-.96-.16,0-.29.13-.29.3,0,.16.13.29.29.29" fill="#484747"/>
        <path d="M51.96,54.51h0c.43,0,.69.34,1,.73.35.45.75.96,1.47.96h.01c.75,0,1.07-.56,1.33-1.01.26-.46.43-.71.82-.72h0c.43,0,.69.34,1,.73.35.45.75.96,1.46.96h.01c.75,0,1.07-.56,1.33-1.01.26-.45.43-.71.82-.72h0c.43,0,.7.34,1,.73.35.45.75.96,1.47.96h.01c.75,0,1.07-.56,1.33-1.01.26-.45.43-.71.82-.71.16,0,.29-.13.29-.3,0-.16-.13-.28-.3-.29-.75,0-1.07.56-1.33,1.01-.26.45-.43.71-.82.71h0c-.43,0-.7-.34-1-.73-.35-.45-.75-.96-1.47-.96h-.01c-.75,0-1.07.56-1.33,1.01-.26.45-.43.71-.82.71h0c-.43,0-.69-.34-1-.73-.35-.45-.75-.96-1.46-.96h-.01c-.75,0-1.07.56-1.33,1.01-.26.45-.43.71-.82.71h0c-.43,0-.7-.34-1-.73-.35-.45-.75-.96-1.47-.96h-.01c-.16,0-.29.13-.29.3,0,.16.13.29.29.29" fill="#484747"/>
        <path d="M51.96,57.33h0c.43,0,.69.34,1,.73.35.45.75.96,1.47.96h.01c.75,0,1.07-.56,1.33-1.01.26-.46.43-.71.82-.72.44,0,.7.34,1.01.73.35.45.75.96,1.48.96.75,0,1.07-.56,1.33-1.01.26-.46.43-.71.82-.72h0c.43,0,.7.34,1,.73.35.45.75.97,1.48.96.75,0,1.07-.56,1.33-1.01.26-.46.43-.71.82-.72.16,0,.29-.13.29-.3,0-.16-.13-.29-.29-.29h0c-.75,0-1.07.56-1.33,1.01-.26.45-.43.71-.82.71-.43.02-.7-.34-1.01-.73-.35-.45-.75-.96-1.47-.96h-.01c-.75,0-1.07.56-1.33,1.01-.26.45-.43.71-.82.71h0c-.43,0-.69-.34-1-.73-.35-.45-.76-.96-1.48-.96-.75,0-1.07.56-1.33,1.01-.26.46-.43.71-.82.72h0c-.43,0-.69-.34-1-.73-.35-.45-.75-.96-1.47-.96h-.01c-.16,0-.29.13-.29.3,0,.16.13.29.29.29" fill="#484747"/>
        <path d="M51.96,60.36h0c.43,0,.69.34,1,.73.35.45.75.96,1.47.96h.01c.75,0,1.07-.56,1.33-1.01.26-.46.43-.71.82-.72h0c.43,0,.69.34,1,.73.35.45.75.96,1.46.96h.01c.75,0,1.07-.56,1.33-1.01.26-.46.43-.71.82-.72.44,0,.7.34,1.01.73.35.45.75.96,1.46.96h.01c.75,0,1.07-.56,1.33-1.01.26-.45.43-.71.82-.71.16,0,.29-.13.29-.3,0-.16-.13-.29-.29-.29h0c-.75,0-1.07.56-1.33,1.01-.26.45-.43.71-.82.71-.43,0-.7-.34-1.01-.73-.35-.45-.76-.97-1.48-.96-.75,0-1.07.56-1.33,1.01-.26.45-.43.71-.82.71-.44,0-.7-.34-1.01-.73-.35-.45-.75-.97-1.48-.96-.75,0-1.07.56-1.33,1.01-.26.45-.43.71-.82.71-.44,0-.7-.34-1.01-.73-.35-.45-.75-.96-1.47-.96h-.01c-.16,0-.29.13-.29.3,0,.16.13.29.29.29" fill="#484747"/>
        <path d="M51.96,63.4h0c.43-.01.7.34,1.01.73.35.45.75.96,1.47.96h.01c.75,0,1.07-.56,1.33-1.01.26-.45.43-.71.82-.71h0c.43,0,.7.34,1,.73.35.45.75.96,1.46.96h.01c.75,0,1.07-.56,1.33-1.01.26-.46.43-.71.82-.72h0c.43,0,.7.34,1,.73.35.45.75.96,1.47.96h.01c.75,0,1.07-.56,1.33-1.01.26-.46.43-.71.82-.72.16,0,.29-.13.29-.3,0-.16-.13-.29-.29-.29h0c-.75,0-1.07.56-1.33,1.01-.26.45-.43.71-.82.71h0c-.43,0-.7-.34-1-.73-.35-.45-.75-.96-1.47-.96h-.01c-.75,0-1.07.56-1.33,1.01-.26.45-.43.71-.82.71-.44,0-.7-.34-1.01-.73-.35-.45-.75-.96-1.47-.96h-.01c-.75,0-1.07.56-1.33,1.01-.26.46-.43.71-.82.72h0c-.43,0-.7-.34-1-.73-.35-.45-.75-.97-1.48-.96-.16,0-.29.13-.29.3,0,.16.13.29.29.29" fill="#484747"/>
        <path d="M69.59,49.26c-.16,0-.29.13-.29.29v1.26l-.98-1.42s-.01-.01-.02-.02c-.01-.02-.03-.03-.04-.04-.01-.01-.03-.02-.05-.03-.02,0-.03-.01-.05-.02-.02,0-.04-.01-.06-.01,0,0-.02,0-.02,0-.01,0-.02,0-.03,0-.02,0-.04,0-.06.01-.02,0-.04.01-.05.02,0,0-.02,0-.03.01,0,0-.01.01-.02.02-.02.01-.03.03-.04.04-.01.01-.02.03-.03.04,0,.02-.01.03-.02.05,0,.02-.01.04-.01.06,0,0,0,.02,0,.03v15.88c0,.16.13.29.3.29s.29-.13.29-.29v-1.96l.92,1.33s0,0,0,0v.61c0,.16.13.29.29.29s.3-.13.3-.29v-15.88c0-.16-.13-.29-.3-.29M68.42,58.19l.88-1.28v2.56l-.88-1.28ZM68.37,57.21v-2.38l.82,1.19-.82,1.19ZM68.42,53.86l.88-1.28v2.56l-.88-1.28ZM68.37,52.89v-2.38l.82,1.19-.82,1.19ZM68.37,59.16l.82,1.19-.82,1.19v-2.38ZM68.42,62.51l.88-1.28v2.56l-.88-1.28Z" fill="#484747"/>
        <path d="M92.8,30.6h13.99c7.75,0,13.01,3.52,13.01,11.5v.33c0,8.45-5.78,11.74-13.01,11.74h-4.65v9.3h-9.34V30.6ZM105.9,45.86c2.96,0,4.65-.85,4.65-3.43v-.14c0-2.44-1.64-3.24-4.65-3.24h-3.76v6.81h3.76Z" fill="#910b32"/>
        <path d="M122.01,52.57v-21.97h9.34v19.91c0,2.77,1.83,4.51,4.88,4.51h.14c3.33,0,4.93-1.69,4.93-4.51v-19.91h9.34v21.93c0,7.37-5.16,11.46-14.13,11.46h-.14c-9.2,0-14.37-4.09-14.37-11.41" fill="#910b32"/>
        <polygon points="154.03 30.6 178.36 30.6 178.36 39.05 163.38 39.05 163.38 43.61 177.93 43.61 177.93 50.27 163.38 50.27 163.38 55.02 178.31 55.02 178.31 63.47 154.03 63.47 154.03 30.6" fill="#910b32"/>
        <path d="M181.27,30.6h15.82c6.81,0,10.33,2.91,10.33,8.03,0,4.32-2.54,6.95-6.29,7.51v.23c3.9.42,7.65,2.58,7.65,8.22s-3.99,8.87-12.11,8.87h-15.4V30.6ZM194.84,43.93c2.02,0,3-.85,3-2.63,0-1.69-.99-2.44-3.19-2.44h-4.04v5.07h4.23ZM195.17,55.2c2.63,0,3.8-.66,3.8-2.63s-1.13-2.77-3.52-2.77h-4.84v5.4h4.55Z" fill="#910b32"/>
        <polygon points="211.46 30.6 220.8 30.6 220.8 55.02 234.84 55.02 234.84 63.47 211.46 63.47 211.46 30.6" fill="#910b32"/>
        <path d="M247.14,30.6h11.22l11.6,32.87h-9.86l-2.16-6.43h-11.08l-2.02,6.43h-9.81l12.11-32.87ZM256.21,49.9l-3.8-11.88-3.71,11.88h7.51Z" fill="#910b32"/>
        <path d="M96.93,94.88v-.03c0-.58-.33-1.08-1.19-1.08h-.07c-.71,0-1.22.35-1.34,1.31l-1.48-.19c.19-1.66,1.2-2.37,2.85-2.37h.1c1.84,0,2.71.94,2.71,2.27v.03c0,2.41-3.12,3.21-3.93,4.51h3.84v1.28h-5.64v-.58c0-2.61,4.15-3.2,4.15-5.14" fill="#484747"/>
        <path d="M114.21,96.76v-.14c0-2.67,1.43-4.08,3.29-4.08h.08c1.77,0,3.21,1.37,3.21,4.07v.13c0,2.62-1.36,4-3.27,4h-.08c-1.8,0-3.23-1.34-3.23-3.99M119.22,96.68v-.11c0-1.53-.68-2.6-1.71-2.6h-.08c-1.01,0-1.73.99-1.73,2.63v.11c0,1.57.69,2.61,1.73,2.61h.08c1.03,0,1.71-.99,1.71-2.64" fill="#484747"/>
        <path d="M140.55,94.88v-.03c0-.58-.33-1.08-1.19-1.08h-.07c-.71,0-1.22.35-1.34,1.31l-1.48-.19c.19-1.66,1.2-2.37,2.85-2.37h.1c1.84,0,2.71.94,2.71,2.27v.03c0,2.41-3.12,3.21-3.93,4.51h3.84v1.28h-5.64v-.58c0-2.61,4.15-3.2,4.15-5.14" fill="#484747"/>
        <path d="M161.04,98.85h-3.75v-1.2l3.6-4.96h1.66v4.9h.94v1.25h-.99v1.75h-1.46v-1.75ZM161.12,97.61v-3.12l-2.32,3.12h2.32Z" fill="#484747"/>
        <rect x="179.25" y="97.03" width="2.71" height=".86" fill="#484747"/>
        <path d="M202.12,94.88v-.03c0-.58-.33-1.08-1.19-1.08h-.07c-.71,0-1.22.35-1.34,1.31l-1.48-.19c.19-1.66,1.2-2.37,2.85-2.37h.1c1.84,0,2.71.94,2.71,2.27v.03c0,2.41-3.12,3.21-3.93,4.51h3.84v1.28h-5.64v-.58c0-2.61,4.15-3.2,4.15-5.14" fill="#484747"/>
        <path d="M219.41,96.76v-.14c0-2.67,1.43-4.08,3.29-4.08h.08c1.77,0,3.21,1.37,3.21,4.07v.13c0,2.62-1.36,4-3.27,4h-.08c-1.8,0-3.23-1.34-3.23-3.99M224.42,96.68v-.11c0-1.53-.68-2.6-1.71-2.6h-.08c-1.01,0-1.73.99-1.73,2.63v.11c0,1.57.69,2.61,1.73,2.61h.08c1.03,0,1.71-.99,1.71-2.64" fill="#484747"/>
        <path d="M241.58,98.45l1.5-.29c.16,1.02.76,1.38,1.53,1.38h.02c.72,0,1.37-.41,1.37-1.26v-.06c0-.9-.51-1.23-1.73-1.23h-.36v-.9h.24c1.06-.02,1.66-.43,1.66-1.2v-.03c0-.58-.33-1.08-1.12-1.08h-.06c-.71,0-1.24.33-1.38,1.24l-1.51-.24c.23-1.59,1.43-2.26,2.9-2.26h.08c1.64,0,2.6.94,2.6,2.1v.03c0,.92-.46,1.49-1.28,1.79v.02c1.05.19,1.56.83,1.56,1.94v.03c0,1.5-1.28,2.35-2.99,2.35h-.02c-1.7,0-2.83-.8-3.01-2.33" fill="#484747"/>
        <path d="M263.25,96.76v-.14c0-2.67,1.43-4.08,3.29-4.08h.08c1.77,0,3.21,1.37,3.21,4.07v.13c0,2.62-1.36,4-3.27,4h-.08c-1.8,0-3.23-1.34-3.23-3.99M268.26,96.68v-.11c0-1.53-.68-2.6-1.71-2.6h-.08c-1.01,0-1.73.99-1.73,2.63v.11c0,1.57.69,2.61,1.73,2.61h.08c1.03,0,1.71-.99,1.71-2.64" fill="#484747"/>
        <g>
          <g>
            <path d="M92.71,75.02v-.14c0-4.35,1.68-6.96,5.97-6.96,3.52,0,5.22,1.72,5.49,4.84l-2.69.49c-.22-2.19-1.21-2.83-2.77-2.83h-.08c-2.17,0-3.2,1.36-3.2,4.66v.08c0,3.2.83,4.66,3.14,4.66h.08c1.7,0,2.75-.89,2.89-3.18h-2.59v-1.58h5.34v7h-2.37v-1.9c-.67,1.56-1.96,2.21-3.76,2.21h-.06c-4.01,0-5.4-2.87-5.4-7.37ZM98.7,67.93h-.04.04Z" fill="#484747"/>
            <path d="M105.54,77.42v-.22c0-3.16,1.98-5.32,5.42-5.32h.24c3.36,0,5.14,2.1,5.14,5.1v.18c0,2.96-1.76,5.24-5.36,5.24h-.18c-3.54,0-5.26-2.09-5.26-4.98ZM113.8,77.14v-.14c0-1.66-.81-2.96-2.75-2.96h-.18c-1.96,0-2.91,1.26-2.91,3.04v.16c0,1.68.83,2.98,2.83,2.98h.1c2.1,0,2.91-1.4,2.91-3.08Z" fill="#484747"/>
            <path d="M120.3,80.58v1.5h-2.59v-14.03h2.59v5.65c.73-1.13,1.96-1.82,3.44-1.82h.22c2.37,0,4.17,2.02,4.17,5v.2c0,3.62-1.74,5.32-4.33,5.32h-.16c-1.74,0-2.75-.77-3.34-1.82ZM125.58,77.1v-.14c0-1.72-.87-2.91-2.53-2.91h-.1c-1.6,0-2.49,1.23-2.65,2.33v1.46c.18,1.28,1.11,2.27,2.55,2.27h.14c1.78,0,2.59-1.15,2.59-3.02Z" fill="#484747"/>
            <path d="M129.28,68.23c0-.91.71-1.54,1.54-1.54s1.52.69,1.52,1.54-.69,1.54-1.52,1.54-1.54-.69-1.54-1.54ZM129.49,72.2h2.59v9.88h-2.59v-9.88Z" fill="#484747"/>
            <path d="M133.49,77.16v-.22c0-2.83,1.7-5.08,5.02-5.08h.14c3.2,0,5.06,1.8,5.12,4.8l.02.93h-7.96c.2,1.86,1.28,2.77,2.87,2.77h.08c1.23,0,2.25-.55,2.51-1.74l2.23.87c-.63,1.84-2.23,2.91-4.74,2.91h-.1c-3.12,0-5.18-1.8-5.18-5.24ZM141.27,76.19v-.22c-.02-1.44-.93-2.33-2.53-2.33h-.1c-1.72,0-2.67.91-2.85,2.55h5.47Z" fill="#484747"/>
            <path d="M145.03,72.2h2.59v1.88c.63-1.23,1.9-1.88,3.52-1.88h.4v2.41h-.83c-1.72,0-2.67.59-3.08,2.02v5.45h-2.59v-9.88Z" fill="#484747"/>
            <path d="M157.46,74.33c-1.32,0-2.19.67-2.65,1.88v5.87h-2.59v-9.88h2.59v1.52c.77-1.19,2-1.84,3.66-1.84,2.43,0,3.7,1.28,3.7,3.68v6.52h-2.61v-5.79c0-1.28-.75-1.96-2.1-1.96Z" fill="#484747"/>
            <path d="M163.55,77.42v-.22c0-3.16,1.98-5.32,5.42-5.32h.24c3.36,0,5.14,2.1,5.14,5.1v.18c0,2.96-1.76,5.24-5.36,5.24h-.18c-3.54,0-5.26-2.09-5.26-4.98ZM171.81,77.14v-.14c0-1.66-.81-2.96-2.75-2.96h-.18c-1.96,0-2.91,1.26-2.91,3.04v.16c0,1.68.83,2.98,2.83,2.98h.1c2.1,0,2.91-1.4,2.91-3.08Z" fill="#484747"/>
            <path d="M185.96,80.58c-.59,1.05-1.54,1.82-3.28,1.82h-.16c-2.59,0-4.37-1.7-4.37-5.32v-.2c0-3.06,1.88-5,4.35-5h.22c1.48,0,2.53.69,3.24,1.82v-5.65h2.59v14.03h-2.59v-1.5ZM185.96,77.85v-1.34c-.1-1.11-.95-2.45-2.55-2.45h-.12c-1.66,0-2.59,1.11-2.59,2.87v.14c0,1.92.85,3.06,2.63,3.06h.14c1.44,0,2.33-.99,2.49-2.27Z" fill="#484747"/>
            <path d="M189.93,77.16v-.22c0-2.83,1.7-5.08,5.02-5.08h.14c3.2,0,5.06,1.8,5.12,4.8l.02.93h-7.96c.2,1.86,1.28,2.77,2.87,2.77h.08c1.23,0,2.25-.55,2.51-1.74l2.23.87c-.63,1.84-2.23,2.91-4.74,2.91h-.1c-3.12,0-5.18-1.8-5.18-5.24ZM197.72,76.19v-.22c-.02-1.44-.93-2.33-2.53-2.33h-.1c-1.72,0-2.67.91-2.85,2.55h5.47Z" fill="#484747"/>
            <path d="M201.47,68.05h2.59v14.03h-2.59v-14.03Z" fill="#484747"/>
            <path d="M219.14,79.61l2.45-.26c.32.89,1.36,1.26,2.77,1.26h.1c1.84,0,2.31-.65,2.31-1.4v-.02c0-2.25-7.35-.55-7.35-4.33v-.12c0-1.92,1.9-2.87,4.61-2.87h.14c2.39,0,4.29.87,4.59,3.14l-2.25.18c-.22-1.4-1.38-1.74-2.47-1.74h-.1c-1.48,0-2.11.51-2.11,1.25v.02c0,1.94,7.17.4,7.17,4.51v.06c0,1.94-1.26,3.1-4.62,3.1h-.08c-3.18,0-4.8-1.03-5.14-2.79Z" fill="#484747"/>
            <path d="M231.28,78.78v-4.61h-2.11v-1.98h2.19v-3.95h2.51v3.95h2.15v1.98h-2.15v4.21c0,1.11.26,1.56,1.13,1.56h.71v2.13h-1.09c-2.29,0-3.34-.99-3.34-3.3Z" fill="#484747"/>
            <path d="M243.61,80.02c-.57,1.36-2.11,2.35-3.74,2.35h-.16c-2.08,0-3.46-1.03-3.46-2.83v-.1c0-2.06,1.5-2.83,4.33-3.18l2.93-.32v-.14c.02-1.28-.77-2.04-2.09-2.04h-.12c-1.11,0-2.08.41-2.31,1.72l-2.29-.47c.49-2.17,2.43-3.14,4.68-3.14h.18c2.96,0,4.55,1.26,4.55,3.79v6.4h-2.49v-2.06ZM243.45,77.18l-2.21.26c-1.72.22-2.39.71-2.39,1.62v.12c0,.67.59,1.34,1.64,1.34h.18c1.36,0,2.61-1.19,2.79-3.34Z" fill="#484747"/>
            <path d="M255.29,80.58c-.59,1.05-1.54,1.82-3.28,1.82h-.16c-2.59,0-4.37-1.7-4.37-5.32v-.2c0-3.06,1.88-5,4.35-5h.22c1.48,0,2.53.69,3.24,1.82v-5.65h2.59v14.03h-2.59v-1.5ZM255.29,77.85v-1.34c-.1-1.11-.95-2.45-2.55-2.45h-.12c-1.66,0-2.59,1.11-2.59,2.87v.14c0,1.92.85,3.06,2.63,3.06h.14c1.44,0,2.33-.99,2.49-2.27Z" fill="#484747"/>
            <path d="M259.27,77.42v-.22c0-3.16,1.98-5.32,5.42-5.32h.24c3.36,0,5.14,2.1,5.14,5.1v.18c0,2.96-1.76,5.24-5.36,5.24h-.18c-3.54,0-5.26-2.09-5.26-4.98ZM267.53,77.14v-.14c0-1.66-.81-2.96-2.75-2.96h-.18c-1.96,0-2.91,1.26-2.91,3.04v.16c0,1.68.83,2.98,2.83,2.98h.1c2.1,0,2.91-1.4,2.91-3.08Z" fill="#484747"/>
          </g>
          <path d="M209.5,68.44h9v2.36h-6.39v3.41h6.14v1.91h-6.14v3.6h6.41v2.36h-9.02v-13.64Z" fill="#484747"/>
        </g>
      </g>
      <rect width="300.68" height="126" transform="translate(300.68 126) rotate(180)" fill="none" opacity=".3"/>
    </g>
  </g>
</svg>