<?xml version="1.0" encoding="UTF-8"?>
<svg id="uuid-88287fd3-f18c-4e6b-a9aa-0cd44fe7ab7c" data-name="Capa 2" xmlns="http://www.w3.org/2000/svg" viewBox="0 0 389.57 126">
  <g id="uuid-dc5eb70d-9a1d-4a77-aaba-6f5782542547" data-name="Capa 8">
    <g>
      <rect width="389.57" height="126" transform="translate(389.57 126) rotate(180)" fill="none" opacity=".3"/>
      <g>
        <g>
          <g>
            <g>
              <path d="M35.34,66.52c0,5.33-3.36,9.84-9.18,9.84h-5.9v7.87h-10.49v-27.54h16.39c5.86,0,9.18,4.51,9.18,9.84ZM24.85,66.85c0-2.01-1.19-2.95-2.62-2.95h-1.97v5.9h1.97c1.43,0,2.62-.9,2.62-2.95Z" fill="#484747"/>
              <path d="M63,56.68v15.74c0,7.25-5.25,12.46-13.77,12.46s-13.77-5.2-13.77-12.46v-15.74h10.49v15.08c0,3.28.98,4.59,3.28,4.59s3.28-1.31,3.28-4.59v-15.08h10.49Z" fill="#484747"/>
              <path d="M74.93,64.55v2.62h6.56v6.56h-6.56v2.62h8.52v7.87h-19.02v-27.54h19.02v7.87h-8.52Z" fill="#484747"/>
              <path d="M110.46,75.95c0,4.75-3.52,8.28-9.43,8.28h-16.15v-27.54h14.79c5.9,0,9.47,2.83,9.47,7.58,0,2.17-1.07,4.1-2.58,5.53,2.25,1.27,3.89,3.4,3.89,6.15ZM95.38,67.83h1.19c1.15,0,2.09-.61,2.09-1.97s-.94-1.97-2.09-1.97h-1.19v3.93ZM99.97,75.04c0-1.35-1.35-1.97-3.07-1.97h-1.52v3.93h1.52c1.72,0,3.07-.61,3.07-1.97Z" fill="#484747"/>
              <path d="M129.93,76.36v7.87h-19.02v-27.54h10.49v19.67h8.52Z" fill="#484747"/>
              <path d="M160.87,84.22h-10.49l-1.11-3.28h-8.28l-1.11,3.28h-10.49l10.94-27.54h9.59l10.94,27.54ZM146.69,73.08l-1.56-4.67-1.56,4.67h3.11Z" fill="#484747"/>
            </g>
            <path d="M104.78,32.58c-6.22,0-11.28,4.84-11.28,10.79s5.06,10.79,11.28,10.79,11.28-4.84,11.28-10.79-5.06-10.79-11.28-10.79ZM111.77,43.7c-.48.82-1.11,1.51-1.73,2.19-1.75,1.9-3.52,3.8-5.27,5.7-1.75-1.9-3.5-3.8-5.25-5.7-.62-.68-1.25-1.36-1.73-2.19-.48-.82-.8-1.8-.73-2.78.11-1.5,1.15-2.8,2.4-3.26,1.02-.38,2.35-.26,3.3.33.95.59,1.72,1.31,2.01,2.5.28-1.19.99-1.91,1.94-2.5.95-.59,2.36-.71,3.38-.33,1.25.46,2.3,1.75,2.4,3.26.07.98-.25,1.96-.73,2.78Z" fill="#910b32"/>
            <path d="M19.42,44.16c0,2.62-1.75,4.68-4.7,4.68h-2.95v4.83h-2v-13.98h4.33c3.64,0,5.33,1.83,5.33,4.47ZM17.42,44.29c0-1.83-1.35-2.6-2.81-2.6h-2.85v5.16h2.98c1.46,0,2.68-.75,2.68-2.56Z" fill="#484747"/>
            <path d="M34.3,46.68c0,3.95-3.2,7.16-7.16,7.16s-7.16-3.2-7.16-7.16,3.2-7.16,7.16-7.16,7.16,3.2,7.16,7.16ZM32.3,46.68c0-2.87-2.29-5.16-5.16-5.16s-5.16,2.29-5.16,5.16,2.29,5.16,5.16,5.16,5.16-2.29,5.16-5.16Z" fill="#484747"/>
            <path d="M43.18,53.67l-3.47-4.83h-2.18v4.83h-2v-13.98h4.33c3.64,0,5.33,1.83,5.33,4.47,0,2.16-1.19,3.93-3.27,4.49l3.6,5.01h-2.33ZM37.52,46.84h2.98c1.46,0,2.68-.75,2.68-2.56s-1.19-2.6-2.64-2.6h-3.02v5.16Z" fill="#484747"/>
            <path d="M68.88,53.67h-7.85l-.83-2.45h-6.19l-.83,2.45h-7.85l8.19-20.6h7.17l8.19,20.6ZM58.27,45.33l-1.17-3.5-1.17,3.5h2.33Z" fill="#910b32"/>
            <path d="M93.9,53.67h-7.36l-.4-9.32-2.45,9.32h-5.89l-2.54-9.32-.4,9.32h-7.36l1.47-20.6h8.34l3.43,11.28,3.92-11.28h7.76l1.47,20.6Z" fill="#910b32"/>
            <path d="M137,53.67h-8.83l-3.92-5.89v5.89h-7.85v-20.6h12.26c4.38,0,6.87,3.37,6.87,7.36,0,2.85-1.29,5.37-3.62,6.59l5.09,6.65ZM127.68,40.67c0-1.5-.89-2.21-1.96-2.21h-1.47v4.41h1.47c1.07,0,1.96-.67,1.96-2.21Z" fill="#910b32"/>
            <path d="M146.08,50.67h-6.28l-1.35,3h-2.16l6.66-14.31,6.66,14.31h-2.16l-1.35-3ZM145.16,48.67l-2.23-4.91-2.23,4.91h4.45Z" fill="#484747"/>
          </g>
          <polygon points="187.11 36.77 187.11 80.68 187.74 80.68 187.74 36.77 187.38 36.77 187.11 36.77" fill="#484747"/>
        </g>
        <g>
          <path d="M252.07,29.95c3.07,0,5.64.97,7.69,2.9,2.06,1.93,3.09,4.5,3.09,7.72s-1.03,5.79-3.09,7.72c-2.06,1.93-4.62,2.9-7.69,2.9h-3.38v8.37h-8.46v-29.6h11.84ZM252.07,42.97c.65,0,1.2-.22,1.65-.66.45-.44.68-1.02.68-1.75s-.23-1.32-.68-1.75c-.45-.44-1-.66-1.65-.66h-3.38v4.82h3.38Z" fill="#484747"/>
          <g>
            <path d="M270.19,52.02c.66,1.37,2.06,2.06,4.21,2.06,1.26,0,2.43-.44,3.5-1.32l4.99,4.21c-2.06,2.23-4.98,3.34-8.74,3.34-3.52,0-6.34-1.02-8.47-3.07-2.13-2.05-3.2-4.62-3.2-7.73s1.04-5.74,3.11-7.83c2.08-2.09,4.69-3.13,7.85-3.13s5.71,1.02,7.73,3.07c2.02,2.05,3.03,4.63,3.03,7.73,0,.91-.11,1.8-.33,2.68h-13.69ZM270.06,47.12h6.93c-.47-1.65-1.58-2.47-3.34-2.47s-2.98.82-3.59,2.47Z" fill="#484747"/>
            <path d="M298.18,38.54c2.25,0,4.06.78,5.42,2.33,1.36,1.55,2.04,3.87,2.04,6.95v11.92h-7.63v-11.09c0-1.84-.85-2.76-2.56-2.76-.91,0-1.6.29-2.08.87-.48.58-.72,1.37-.72,2.39v10.6h-7.63v-20.62h7.63v2.02c1.26-1.73,3.11-2.6,5.53-2.6Z" fill="#484747"/>
            <path d="M314.68,45.18c0,.33.25.59.76.78.51.19,1.15.34,1.92.43.77.1,1.59.28,2.47.56.88.28,1.7.62,2.47,1.03.77.41,1.41,1.07,1.92,1.96.51.89.76,1.97.76,3.24s-.3,2.47-.89,3.46c-.59.99-1.37,1.73-2.33,2.23-.96.49-1.95.86-2.95,1.09-1,.23-2.04.35-3.11.35-4.98,0-8.19-1.64-9.65-4.91l6.64-2.97c.52,1.4,1.5,2.1,2.93,2.1.93,0,1.4-.3,1.4-.91,0-.36-.34-.65-1.03-.87-.69-.22-1.51-.45-2.47-.68-.96-.23-1.93-.55-2.91-.95-.98-.4-1.81-1.06-2.49-2-.69-.93-1.03-2.1-1.03-3.5,0-2.25.86-4,2.58-5.24,1.72-1.24,3.7-1.86,5.96-1.86,4.51,0,7.49,1.75,8.95,5.24l-6.31,2.27c-.49-1.15-1.26-1.73-2.31-1.73-.85,0-1.28.29-1.28.87Z" fill="#484747"/>
            <path d="M339.87,39.12h7.63v20.62h-7.63v-1.86c-1.32,1.62-3.16,2.43-5.53,2.43-2.78,0-5.04-1.03-6.8-3.09-1.76-2.06-2.64-4.66-2.64-7.79s.88-5.73,2.64-7.79c1.76-2.06,4.03-3.09,6.8-3.09,2.36,0,4.21.81,5.53,2.43v-1.86ZM333.54,52.19c.67.74,1.56,1.11,2.66,1.11s1.99-.37,2.66-1.11c.67-.74,1.01-1.66,1.01-2.76s-.34-2.02-1.01-2.76c-.67-.74-1.56-1.11-2.66-1.11s-1.99.37-2.66,1.11c-.67.74-1.01,1.66-1.01,2.76s.34,2.02,1.01,2.76Z" fill="#484747"/>
            <path d="M356.98,43.12c.38-1.4,1.14-2.49,2.27-3.26,1.13-.77,2.43-1.15,3.92-1.15v8.25c-1.65-.22-3.09.1-4.33.97-1.24.87-1.86,2.25-1.86,4.14v4.44h-7.63v-17.39h7.63v4Z" fill="#484747"/>
          </g>
          <g>
            <path d="M282.96,70.14c.38-1.4,1.14-2.49,2.27-3.26,1.13-.77,2.43-1.15,3.92-1.15v8.25c-1.65-.22-3.09.1-4.33.97-1.24.87-1.86,2.25-1.86,4.14v7.67h-7.63v-20.62h7.63v4Z" fill="#484747"/>
            <path d="M303.62,66.14h7.63v20.62h-7.63v-1.86c-1.32,1.62-3.16,2.43-5.53,2.43-2.78,0-5.04-1.03-6.8-3.09-1.76-2.06-2.64-4.66-2.64-7.79s.88-5.73,2.64-7.79c1.76-2.06,4.03-3.09,6.8-3.09,2.36,0,4.21.81,5.53,2.43v-1.86ZM297.29,79.21c.67.74,1.56,1.11,2.66,1.11s1.99-.37,2.66-1.11c.67-.74,1.01-1.66,1.01-2.76s-.34-2.02-1.01-2.76c-.67-.74-1.56-1.11-2.66-1.11s-1.99.37-2.66,1.11c-.67.74-1.01,1.66-1.01,2.76s.34,2.02,1.01,2.76Z" fill="#484747"/>
            <path d="M326.25,65.56c2.25,0,4.06.78,5.42,2.33,1.36,1.55,2.04,3.87,2.04,6.95v11.92h-7.63v-11.09c0-1.84-.85-2.76-2.56-2.76-.91,0-1.6.29-2.08.87-.48.58-.72,1.37-.72,2.39v10.6h-7.63v-20.62h7.63v2.02c1.26-1.73,3.11-2.6,5.53-2.6Z" fill="#484747"/>
            <path d="M349.34,57.89h7.63v28.86h-7.63v-1.86c-1.32,1.62-3.16,2.43-5.53,2.43-2.78,0-5.04-1.03-6.8-3.09-1.76-2.06-2.64-4.66-2.64-7.79s.88-5.73,2.64-7.79c1.76-2.06,4.03-3.09,6.8-3.09,2.36,0,4.21.81,5.53,2.43v-10.1ZM343.01,79.21c.67.74,1.56,1.11,2.66,1.11s1.99-.37,2.66-1.11c.67-.74,1.01-1.66,1.01-2.76s-.34-2.02-1.01-2.76c-.67-.74-1.56-1.11-2.66-1.11s-1.99.37-2.66,1.11c-.67.74-1.01,1.66-1.01,2.76s.34,2.02,1.01,2.76Z" fill="#484747"/>
            <path d="M365.55,79.05c.66,1.37,2.06,2.06,4.21,2.06,1.26,0,2.43-.44,3.5-1.32l4.99,4.21c-2.06,2.23-4.98,3.34-8.74,3.34-3.52,0-6.34-1.02-8.47-3.07-2.13-2.05-3.2-4.62-3.2-7.73s1.04-5.74,3.11-7.83c2.08-2.09,4.69-3.13,7.85-3.13s5.71,1.02,7.73,3.07c2.02,2.05,3.03,4.63,3.03,7.73,0,.91-.11,1.8-.33,2.68h-13.69ZM365.42,74.14h6.93c-.47-1.65-1.58-2.47-3.34-2.47s-2.98.82-3.59,2.47Z" fill="#484747"/>
          </g>
          <path d="M215.71,66.19c.24-.44.41-.9.48-1.3.08-.41.03-.74-.06-.91-.08-.3-.85-.68-1.46-.47-.72.17-1.58.84-2.29,1.65-1.44,1.64-2.51,3.81-3.04,5.97,0,.02,0,.03-.01.05,1.6-.56,3.1-1.41,4.35-2.51.83-.72,1.55-1.57,2.03-2.47Z" fill="none"/>
          <path d="M269.13,59.67s-.01.01,0,0h0Z" fill="#595958"/>
          <path d="M250.71,73.93c.38-.3.76-.6,1.12-.92.02-.01.07-.06.14-.14,0-.01,0-.02,0-.03,0-2.06.63-3.73,1.89-5.03,1.22-1.26,2.82-1.91,4.77-1.95,2.12-2.24,4.4-4.66,6.29-6.66-1.94-.86-4.03-1.3-6.29-1.3-4.22,0-7.74,1.43-10.55,4.28-2.81,2.86-4.22,6.39-4.22,10.61,0,1.61.21,3.13.62,4.54,1.28-.32,2.63-.98,3.88-1.75.81-.5,1.59-1.05,2.35-1.65Z" fill="#484747"/>
          <path d="M264.23,68.45l6.9-3.94c-.85-1.36-1.92-2.53-3.19-3.51-1.51,1.65-3.47,3.72-5.44,5.76.69.42,1.27.98,1.73,1.69Z" fill="#484747"/>
          <path d="M259.18,70.19c-.16.16-.31.32-.46.48v6.42h6.05c-.95,2-2.83,3-5.64,3-2.44,0-4.24-.72-5.4-2.17-.37-.46-.68-.95-.94-1.46-.02.01-.03.02-.05.04-.84.67-1.7,1.3-2.62,1.88-.91.58-1.89,1.11-2.93,1.57-.44.19-.9.36-1.37.51.61,1.04,1.36,2.01,2.26,2.91,2.81,2.83,6.44,4.24,10.88,4.24s7.68-1.33,10.29-3.98c2.61-2.65,3.92-6.01,3.92-10.07v-3.37h-13.99Z" fill="#484747"/>
          <path d="M267.95,61c.45-.49.86-.95,1.22-1.35-.01.01-.02.02-.03.03-.01.01-.02.01,0,0,.01-.01.03-.03.03-.03v-4.93c-.1.1-1.87,1.96-4.24,4.48.34.15.67.31.99.49.73.39,1.4.83,2.03,1.32Z" fill="#910b32"/>
          <path d="M243.44,77.51c-.39.03-.77.04-1.11-.02-.34-.04-.52-.13-.68-.24-.15-.11-.29-.27-.43-.54-.14-.27-.26-.63-.35-1.03-.19-.82-.29-1.79-.42-2.83-.07-.52-.14-1.07-.26-1.65-.13-.58-.29-1.2-.6-1.85-.31-.65-.83-1.37-1.59-1.86-.75-.5-1.61-.69-2.33-.72-.18-.01-.36-.01-.53,0-.17,0-.39.02-.57.05-.38.06-.75.15-1.09.27-.68.24-1.26.59-1.78.95-1.03.74-1.82,1.58-2.53,2.44,0,0-.01.02-.02.03.27-1.16.54-2.32.8-3.49l-3.8-1.57h0c-.54.93-1.25,1.85-2.03,2.72-.78.88-1.61,1.72-2.51,2.51-1.78,1.58-3.73,3.02-5.78,4.13-1.03.54-2.09,1.01-3.11,1.28-1.01.28-2.03.31-2.53.05-.26-.13-.42-.27-.64-.64-.15-.25-.26-.56-.34-.89,2.39-.71,4.67-1.88,6.57-3.59,1.04-.94,1.98-2.03,2.69-3.35.35-.66.64-1.39.79-2.22.14-.82.14-1.81-.32-2.77-.23-.47-.57-.92-.97-1.25-.4-.33-.84-.57-1.27-.73-.22-.08-.42-.14-.65-.19-.24-.05-.48-.09-.73-.1-.48-.02-.96.04-1.39.15-.87.23-1.58.63-2.2,1.08-.62.45-1.15.95-1.63,1.48-.95,1.06-1.71,2.21-2.35,3.43-.63,1.22-1.13,2.5-1.47,3.85-.33,1.36-.52,2.79-.31,4.34.11.77.33,1.57.75,2.34.21.38.45.74.8,1.11.34.35.75.66,1.18.88.87.45,1.77.58,2.57.58.81,0,1.56-.12,2.26-.29,1.41-.34,2.67-.87,3.88-1.47,2.4-1.2,4.59-2.68,6.63-4.35.1-.08.19-.16.29-.25-.16.71-.31,1.43-.46,2.14-.68,3.09-1.38,6.19-2.1,9.26h0s3.68,1.1,3.68,1.1c.64-1.82,1.4-3.69,2.21-5.48.82-1.8,1.71-3.56,2.72-5.19.5-.82,1.04-1.6,1.61-2.32.57-.71,1.19-1.36,1.81-1.81.31-.22.62-.4.89-.5.14-.05.26-.08.38-.1.06,0,.1-.02.19-.02.08,0,.16,0,.23,0,.29.01.46.07.56.13.1.06.22.18.35.44.27.53.44,1.44.57,2.4.14.97.24,2.03.52,3.19.14.58.34,1.2.67,1.83.33.63.84,1.29,1.53,1.75.68.47,1.48.72,2.16.79.66.1,1.31.08,1.93.02.72-.08,1.39-.23,2.04-.43-.57-.98-1.02-2.02-1.34-3.12-.35.09-.7.15-1.04.18ZM209.35,71.12c.53-2.16,1.6-4.33,3.04-5.97.71-.81,1.57-1.48,2.29-1.65.61-.2,1.38.18,1.46.47.09.17.13.5.06.91-.07.41-.24.86-.48,1.3-.47.89-1.2,1.74-2.03,2.47-1.25,1.09-2.75,1.94-4.35,2.51,0-.02,0-.03.01-.05Z" fill="#910b32"/>
          <path d="M269.16,59.64s-.02.02-.03.03c0,0,.01-.01.03-.03Z" fill="#595958"/>
          <path d="M258.63,65.85c-3.17,3.35-5.99,6.33-6.66,7.01,0,1.31.27,2.51.81,3.6.4-.32.8-.65,1.18-.99.14-.12,2.15-2.15,4.75-4.8v-.48h.46c1.06-1.08,2.19-2.26,3.33-3.43-1-.61-2.24-.91-3.71-.91-.05,0-.11,0-.16,0Z" fill="#910b32"/>
          <path d="M250.12,78.38c.92-.58,1.79-1.21,2.62-1.88.02-.01.03-.02.05-.04-.53-1.08-.8-2.28-.81-3.6-.08.08-.13.13-.14.14-.37.31-.74.62-1.12.92-.76.59-1.55,1.15-2.35,1.65-1.26.77-2.6,1.43-3.88,1.75.32,1.1.77,2.15,1.34,3.12.47-.15.93-.32,1.37-.51,1.04-.45,2.01-.98,2.93-1.57Z" fill="#484747"/>
          <path d="M258.79,65.85c1.47,0,2.71.3,3.71.91,1.97-2.05,3.93-4.11,5.44-5.76-.63-.48-1.3-.92-2.03-1.32-.33-.18-.66-.34-.99-.49-1.89,2-4.17,4.42-6.29,6.66.05,0,.11,0,.16,0Z" fill="#910b32"/>
          <path d="M258.71,70.67c.15-.16.31-.32.46-.48h-.46v.48Z" fill="#595958"/>
        </g>
      </g>
    </g>
  </g>
</svg>